<svg width="885" height="231" viewBox="0 0 885 231" fill="none" xmlns="http://www.w3.org/2000/svg">
<path fill-rule="evenodd" clip-rule="evenodd" d="M464.275 217.596C491.785 244.97 553.458 228.782 607.157 181.973H559.631C519.261 209.508 478.744 217.369 459.626 198.346C455.466 194.207 452.586 189.059 450.909 183.124C451.33 197.094 455.652 209.015 464.275 217.596ZM668.578 14.3051C685.065 30.7108 685.828 59.3266 673.665 91.1267H638.9C652.683 61.2227 653.883 34.1782 639.247 19.6145C625.407 5.84383 600.354 6.16106 572.26 17.8312C611.574 -2.55474 648.855 -5.31983 668.578 14.3051Z" fill="#F1F1F1"/>
<path d="M94.558 38.4921L110.559 45.0174L101.64 90.694H13.7672L23.9972 38.4921H94.558ZM87.8691 71.1183L90.361 58.0678H37.6372L35.1453 71.1183H87.8691Z" fill="#F1F1F1"/>
<path d="M214.868 53.6307H144.57L143.651 58.0678H214.081L211.458 71.1183H141.16L140.373 75.5554H210.671L207.655 90.694H119.782L130.012 38.4921H217.885L214.868 53.6307Z" fill="#F1F1F1"/>
<path d="M237.307 38.4921H325.18L322.163 53.6307H251.865L250.947 58.0678H321.376L314.95 90.694H227.077L230.093 75.5554H300.392L301.178 71.1183H231.011L237.307 38.4921Z" fill="#F1F1F1"/>
<path d="M344.602 38.4921H362.176L351.815 90.694H334.372L344.602 38.4921Z" fill="#F1F1F1"/>
<path d="M391.942 75.5554H444.666L445.584 71.1183H414.501L417.124 58.0678H465.651L459.224 90.694H371.351L381.581 38.4921H469.454L466.437 53.6307H396.27L391.942 75.5554Z" fill="#F1F1F1"/>
<path d="M559.174 38.4921H576.749L566.519 90.694H548.813L539.501 84.1687L533.468 79.9926V79.8621H533.337L527.042 75.5554L524.025 73.3368L520.878 71.1183L517.992 69.1607L514.713 66.8116L508.418 62.505L502.516 58.3288L496.089 90.694H478.646L488.876 38.4921H506.451L515.5 45.0174L521.533 49.324L521.796 49.585L527.698 53.6307L530.714 55.8492L533.599 58.0678L537.141 60.6779L539.764 62.505L551.83 71.1183L552.617 71.6403L559.174 38.4921Z" fill="#F1F1F1"/>
<path d="M24.7881 123.713L23.87 128.15H76.3315L73.7085 141.201H21.3781L17.5746 160.776H0L10.23 108.574H98.1031L95.0865 123.713H24.7881Z" fill="#F1F1F1"/>
<path d="M205.398 108.574L198.972 141.201H181.79L197.004 151.771L195.168 160.776H177.594L168.544 154.251L162.511 149.944L162.249 149.683L156.478 145.638L153.33 143.419L150.445 141.201H128.804L124.87 160.776H107.295L117.656 108.574H205.398ZM184.02 128.15L184.938 123.713H132.214L131.296 128.15H184.02Z" fill="#F1F1F1"/>
<path d="M223.502 108.574H311.113L300.883 160.776H213.141L223.502 108.574ZM287.243 141.201H287.112L289.604 128.02H237.011L235.437 136.894L234.519 141.201H287.243Z" fill="#F1F1F1"/>
<path d="M400.836 108.574H418.411L408.181 160.776H390.475L381.163 154.251L375.13 150.075V149.944H374.999L368.704 145.638L365.687 143.419L362.54 141.201L359.654 139.243L356.375 136.894L350.08 132.587L344.178 128.411L337.751 160.776H320.308L330.538 108.574H348.113L357.162 115.1L363.195 119.406L363.458 119.667L369.36 123.713L372.376 125.932L375.261 128.15L378.803 130.76L381.426 132.587L393.492 141.201L394.279 141.723L400.836 108.574Z" fill="#F1F1F1"/>
<path d="M437.652 108.574H525.69L522.805 123.713H488.011L480.667 160.776H463.092L470.437 123.713H434.636L437.652 108.574Z" fill="#F1F1F1"/>
<path d="M544.978 108.574H562.552L552.191 160.776H534.747L544.978 108.574Z" fill="#F1F1F1"/>
<path d="M666.702 123.713H596.404L595.486 128.15H665.915L663.292 141.201H592.994L592.207 145.638H662.505L659.489 160.776H571.616L581.846 108.574H669.719L666.702 123.713Z" fill="#F1F1F1"/>
<path d="M777.014 108.574L770.588 141.201H753.406L768.62 151.771L766.784 160.776H749.209L740.16 154.251L734.127 149.944L733.864 149.683L728.094 145.638L724.946 143.419L722.061 141.201H700.42L696.486 160.776H678.911L689.272 108.574H777.014ZM755.636 128.15L756.554 123.713H703.83L702.912 128.15H755.636Z" fill="#F1F1F1"/>
<path d="M796.436 108.574H884.309L881.293 123.713H810.994L810.076 128.15H880.506L874.079 160.776H786.206L789.223 145.638H859.521L860.308 141.201H790.141L796.436 108.574Z" fill="#F1F1F1"/>
<path d="M676.626 191.472H676.235L676.159 191.855L673.401 205.672L673.287 206.242H673.869H716.771H717.163L717.239 205.857L717.687 203.586L717.8 203.017H717.22H677.209L678.876 194.76H719.015H719.406L719.483 194.377L722.24 180.624L722.355 180.053H721.773H687.464H687.072L686.996 180.437L686.547 182.709L686.435 183.278H687.015H718.432L716.766 191.472H676.626ZM763.384 180.15L763.299 180.116H763.207V180.593C763.207 180.116 763.207 180.116 763.207 180.116H763.206L763.201 180.116L763.182 180.116L763.109 180.116L762.821 180.116L761.73 180.116C760.79 180.116 759.447 180.116 757.836 180.115C754.612 180.114 750.314 180.112 746.013 180.108C741.713 180.105 737.41 180.099 734.179 180.09C732.564 180.085 731.216 180.08 730.271 180.074C729.798 180.071 729.427 180.068 729.174 180.064C729.047 180.063 728.951 180.061 728.888 180.059C728.867 180.059 728.851 180.058 728.84 180.058C728.69 180.035 728.564 180.093 728.5 180.137C728.426 180.186 728.386 180.244 728.373 180.263C728.343 180.307 728.326 180.349 728.321 180.361L728.321 180.361C728.307 180.394 728.296 180.429 728.289 180.452C728.274 180.504 728.256 180.574 728.236 180.655C728.196 180.82 728.142 181.059 728.077 181.36C727.947 181.962 727.768 182.824 727.557 183.858C727.136 185.927 726.587 188.69 726.042 191.454C725.497 194.219 724.956 196.985 724.551 199.06C724.348 200.098 724.18 200.963 724.062 201.568L723.926 202.271L723.89 202.456L723.88 202.504L723.878 202.516L723.877 202.519L723.877 202.519C723.877 202.52 723.877 202.52 724.345 202.611L723.877 202.52L723.802 202.906L724.167 203.053L731.991 206.207L732.076 206.242H732.169H766.542H766.933L767.009 205.859L771.434 183.778L771.512 183.388L771.143 183.241L763.384 180.15ZM728.562 180.953C728.59 180.969 728.614 180.98 728.627 180.985C728.632 180.986 728.64 180.988 728.647 180.99C728.647 180.99 728.647 180.991 728.647 180.991C728.618 180.983 728.589 180.972 728.56 180.958L728.562 180.953ZM776.264 191.472H775.873L775.797 191.855L773.039 205.672L772.925 206.242H773.507H816.409H816.8L816.876 205.857L817.325 203.586L817.438 203.017H816.858H776.847L778.514 194.76H818.653H819.044L819.121 194.377L821.878 180.624L821.993 180.053H821.411H787.102H786.71L786.634 180.437L786.185 182.709L786.073 183.278H786.653H818.07L816.404 191.472H776.264ZM827.324 191.472L829.067 182.897L829.067 182.896L829.532 180.626L829.649 180.053H829.065H826.741H826.35L826.273 180.436L823.516 194.189L823.401 194.76H823.983H855.34L853.207 205.673L853.096 206.242H853.675H855.983H856.374L856.451 205.859L858.682 194.76H866.885H867.279L867.353 194.373L867.802 192.039L867.911 191.472H867.334H859.324L861.517 180.624L861.632 180.053H861.05H858.647H858.25L858.178 180.443L857.76 182.709L857.759 182.715L856.04 191.472H827.324ZM767.857 185.555L764.356 203.017H733.159L727.52 200.739L731.02 183.278H762.217L767.857 185.555Z" fill="#FF671E" stroke="#FF671E" stroke-width="0.953352"/>
</svg>
