<svg width="1019" height="1019" viewBox="0 0 1019 1019" fill="none" xmlns="http://www.w3.org/2000/svg">
<circle cx="509" cy="510" r="117.5" stroke="#F1F1F1" stroke-width="3" stroke-dasharray="9 9"/>
<circle cx="509" cy="511" r="289.5" stroke="#F1F1F1" stroke-width="3" stroke-dasharray="9 9"/>
<circle cx="509" cy="510" r="363.5" stroke="#F1F1F1" stroke-width="3" stroke-dasharray="9 9"/>
<circle cx="509.5" cy="509.5" r="508" stroke="#F1F1F1" stroke-width="3" stroke-dasharray="9 9"/>
<g filter="url(#filter0_f_0_1)">
<circle cx="207.756" cy="96.7554" r="32.7554" fill="#42A5F5"/>
</g>
<mask id="mask0_0_1" style="mask-type:alpha" maskUnits="userSpaceOnUse" x="175" y="64" width="67" height="66">
<circle cx="208" cy="97" r="33" fill="#D9D9D9"/>
</mask>
<g mask="url(#mask0_0_1)">
<path d="M179.295 130L190.515 64H193.815L182.595 130H179.295Z" fill="#8C4A4A"/>
<path d="M232.09 130L243.31 64H246.61L235.39 130H232.09Z" fill="#8C4A4A"/>
<path d="M222.189 130L233.409 64H236.709L225.489 130H222.189Z" fill="#B66161"/>
<path d="M175.987 130L187.207 64H190.507L179.287 130H175.987Z" fill="#DA8F8F"/>
<path d="M169.39 130L180.61 64H187.21L175.99 130H169.39Z" fill="#B66161"/>
<path d="M225.49 130L236.71 64H243.31L232.09 130H225.49Z" fill="#DA8F8F"/>
<path d="M182.591 130L193.811 64H203.711L192.491 130H182.591Z" fill="#B66161"/>
<path d="M156.188 130L167.408 64H180.608L169.388 130H156.188Z" fill="#DA8F8F"/>
<path d="M208.987 130L220.207 64H233.407L222.187 130H208.987Z" fill="#8C4A4A"/>
<path d="M192.489 130L203.709 64H220.209L208.989 130H192.489Z" fill="#DA8F8F"/>
<path d="M235.391 130L246.611 64H263.111L251.891 130H235.391Z" fill="#B66161"/>
<path d="M205.645 138.132L227.295 10.7771H233.663L212.013 138.132H205.645Z" fill="#42A5F5"/>
<path d="M186.54 138.132L208.191 10.7771H214.558L192.908 138.132H186.54Z" fill="#63D4F4"/>
<path d="M192.907 138.132L214.558 10.7771H227.293L205.643 138.132H192.907Z" fill="#A7FFEB"/>
<path d="M161.069 138.132L182.719 10.7771H208.19L186.54 138.132H161.069Z" fill="#42A5F5"/>
<path d="M129.23 138.132L150.88 10.7771H182.719L161.069 138.132H129.23Z" fill="#A7FFEB"/>
<path d="M212.012 138.132L233.662 10.7771H265.501L243.851 138.132H212.012Z" fill="#63D4F4"/>
</g>
<circle cx="180.5" cy="77.5" r="12.5" fill="#A8E8FA"/>
<circle cx="192.5" cy="57.5" r="7.5" fill="#A8E8FA"/>
<g filter="url(#filter1_f_0_1)">
<circle cx="225.756" cy="267.571" r="32.7554" fill="#7B1FA2"/>
</g>
<mask id="mask1_0_1" style="mask-type:alpha" maskUnits="userSpaceOnUse" x="193" y="234" width="67" height="67">
<circle cx="226" cy="267.815" r="33" fill="#D9D9D9"/>
</mask>
<g mask="url(#mask1_0_1)">
<path d="M197.295 300.815L208.515 234.815H211.815L200.595 300.815H197.295Z" fill="#8C4A4A"/>
<path d="M250.089 300.815L261.309 234.815H264.609L253.389 300.815H250.089Z" fill="#8C4A4A"/>
<path d="M240.188 300.815L251.408 234.815H254.708L243.488 300.815H240.188Z" fill="#B66161"/>
<path d="M193.989 300.815L205.209 234.815H208.509L197.289 300.815H193.989Z" fill="#DA8F8F"/>
<path d="M187.39 300.815L198.61 234.815H205.21L193.99 300.815H187.39Z" fill="#B66161"/>
<path d="M243.489 300.815L254.709 234.815H261.309L250.089 300.815H243.489Z" fill="#DA8F8F"/>
<path d="M200.592 300.815L211.812 234.815H221.712L210.492 300.815H200.592Z" fill="#B66161"/>
<path d="M174.188 300.815L185.408 234.815H198.608L187.388 300.815H174.188Z" fill="#DA8F8F"/>
<path d="M226.989 300.815L238.209 234.815H251.409L240.189 300.815H226.989Z" fill="#8C4A4A"/>
<path d="M210.489 300.815L221.709 234.815H238.209L226.989 300.815H210.489Z" fill="#DA8F8F"/>
<path d="M253.39 300.815L264.61 234.815H281.11L269.89 300.815H253.39Z" fill="#B66161"/>
<path d="M241.157 322.762L266.935 171.132H274.516L248.739 322.762H241.157Z" fill="#CE93D8"/>
<path d="M218.408 322.762L244.185 171.132H251.767L225.99 322.762H218.408Z" fill="#7B1FA2"/>
<path d="M225.989 322.762L251.766 171.132H266.929L241.152 322.762H225.989Z" fill="#AB47BC"/>
<path d="M188.083 322.762L213.86 171.132H244.186L218.409 322.762H188.083Z" fill="#CE93D8"/>
<path d="M150.173 322.762L175.95 171.132H213.857L188.08 322.762H150.173Z" fill="#AB47BC"/>
<path d="M248.738 322.762L274.515 171.132H312.422L286.645 322.762H248.738Z" fill="#7B1FA2"/>
</g>
<mask id="path-45-outside-1_0_1" maskUnits="userSpaceOnUse" x="196.077" y="218.022" width="51.9906" height="98.8538" fill="black">
<rect fill="white" x="196.077" y="218.022" width="51.9906" height="98.8538"/>
<path fill-rule="evenodd" clip-rule="evenodd" d="M218.336 222.315C207.05 224.112 201.04 245.732 204.914 270.605C208.787 295.478 221.076 314.186 232.362 312.39C237.94 311.502 242.229 305.772 244.673 297.2C242.451 302.809 239.157 306.453 235.072 307.103C225.132 308.685 214.268 291.951 210.808 269.726C207.347 247.501 212.599 228.201 222.539 226.619C226.735 225.951 231.095 228.547 234.993 233.442C229.994 225.733 224.037 221.408 218.336 222.315Z"/>
</mask>
<path fill-rule="evenodd" clip-rule="evenodd" d="M218.336 222.315C207.05 224.112 201.04 245.732 204.914 270.605C208.787 295.478 221.076 314.186 232.362 312.39C237.94 311.502 242.229 305.772 244.673 297.2C242.451 302.809 239.157 306.453 235.072 307.103C225.132 308.685 214.268 291.951 210.808 269.726C207.347 247.501 212.599 228.201 222.539 226.619C226.735 225.951 231.095 228.547 234.993 233.442C229.994 225.733 224.037 221.408 218.336 222.315Z" fill="#7B1FA2"/>
<path d="M204.914 270.605L203.926 270.762L203.926 270.762L204.914 270.605ZM244.673 297.2L245.634 297.471L243.744 296.834L244.673 297.2ZM235.072 307.103L235.225 308.091L235.225 308.091L235.072 307.103ZM210.808 269.726L211.795 269.569L211.795 269.569L210.808 269.726ZM234.993 233.442L234.211 234.067L235.832 232.895L234.993 233.442ZM205.901 270.448C203.981 258.119 204.52 246.644 206.903 238.072C209.312 229.403 213.473 224.102 218.49 223.303L218.182 221.327C211.913 222.325 207.426 228.732 204.977 237.541C202.502 246.446 201.973 258.218 203.926 270.762L205.901 270.448ZM232.208 311.402C227.191 312.2 221.621 308.447 216.693 300.947C211.821 293.53 207.821 282.777 205.901 270.448L203.926 270.762C205.879 283.307 209.96 294.344 215.022 302.05C220.029 309.673 226.247 314.376 232.516 313.378L232.208 311.402ZM243.712 296.928C241.289 305.426 237.166 310.612 232.208 311.402L232.516 313.378C238.713 312.391 243.169 306.118 245.634 297.471L243.712 296.928ZM243.744 296.834C241.568 302.327 238.474 305.549 234.918 306.115L235.225 308.091C239.84 307.357 243.334 303.291 245.602 297.566L243.744 296.834ZM234.918 306.115C232.752 306.46 230.463 305.823 228.14 304.23C225.811 302.633 223.498 300.107 221.348 296.795C217.05 290.174 213.509 280.575 211.795 269.569L209.82 269.883C211.567 281.101 215.187 290.982 219.671 297.889C221.913 301.342 224.395 304.091 227.007 305.882C229.625 307.676 232.421 308.538 235.225 308.091L234.918 306.115ZM211.795 269.569C210.081 258.562 210.534 248.327 212.612 240.691C213.652 236.872 215.085 233.75 216.816 231.507C218.543 229.269 220.527 227.952 222.693 227.607L222.385 225.631C219.581 226.077 217.181 227.766 215.236 230.287C213.295 232.802 211.767 236.19 210.684 240.171C208.516 248.137 208.073 258.665 209.82 269.883L211.795 269.569ZM222.693 227.607C226.346 227.026 230.386 229.264 234.211 234.067L235.776 232.817C231.804 227.83 227.123 224.877 222.385 225.631L222.693 227.607ZM218.49 223.303C223.559 222.496 229.193 226.338 234.155 233.989L235.832 232.895C230.796 225.128 224.515 220.319 218.182 221.327L218.49 223.303Z" fill="#7B1FA2" mask="url(#path-45-outside-1_0_1)"/>
<g filter="url(#filter2_f_0_1)">
<circle cx="432.274" cy="231.933" r="33.7759" fill="#AD1457"/>
</g>
<mask id="mask2_0_1" style="mask-type:alpha" maskUnits="userSpaceOnUse" x="398" y="198" width="69" height="68">
<circle cx="432.274" cy="231.933" r="33.7759" fill="#D9D9D9"/>
</mask>
<g mask="url(#mask2_0_1)">
<path d="M402.887 265.711L414.371 198.159H417.749L406.265 265.711H402.887Z" fill="#8C4A4A"/>
<path d="M456.925 265.711L468.409 198.159H471.787L460.303 265.711H456.925Z" fill="#8C4A4A"/>
<path d="M446.788 265.711L458.272 198.159H461.65L450.166 265.711H446.788Z" fill="#B66161"/>
<path d="M399.504 265.711L410.988 198.159H414.366L402.882 265.711H399.504Z" fill="#DA8F8F"/>
<path d="M392.756 265.711L404.24 198.159H410.995L399.512 265.711H392.756Z" fill="#B66161"/>
<path d="M450.172 265.711L461.655 198.159H468.411L456.927 265.711H450.172Z" fill="#DA8F8F"/>
<path d="M406.264 265.711L417.748 198.159H427.881L416.397 265.711H406.264Z" fill="#B66161"/>
<path d="M379.242 265.711L390.726 198.159H404.236L392.753 265.711H379.242Z" fill="#DA8F8F"/>
<path d="M433.281 265.711L444.764 198.159H458.275L446.791 265.711H433.281Z" fill="#8C4A4A"/>
<path d="M416.389 265.711L427.873 198.159H444.761L433.277 265.711H416.389Z" fill="#DA8F8F"/>
<path d="M460.302 265.711L471.786 198.159H488.674L477.19 265.711H460.302Z" fill="#B66161"/>
<path d="M431.755 278.926L456.73 132.011H464.076L439.101 278.926H431.755Z" fill="#D81B60"/>
<path d="M409.722 278.926L434.697 132.011H442.043L417.067 278.926H409.722Z" fill="#F06292"/>
<path d="M417.064 278.926L442.04 132.011H456.731L431.756 278.926H417.064Z" fill="#AD1457"/>
<path d="M380.34 278.926L405.315 132.011H434.698L409.723 278.926H380.34Z" fill="#D81B60"/>
<path d="M343.609 278.926L368.585 132.011H405.314L380.338 278.926H343.609Z" fill="#AD1457"/>
<path d="M439.104 278.926L464.079 132.011H500.808L475.832 278.926H439.104Z" fill="#F06292"/>
</g>
<mask id="path-66-outside-2_0_1" maskUnits="userSpaceOnUse" x="380.632" y="191.637" width="102.8" height="81.4948" fill="black">
<rect fill="white" x="380.632" y="191.637" width="102.8" height="81.4948"/>
<path fill-rule="evenodd" clip-rule="evenodd" d="M389.604 252.897C395.497 263.102 418.532 260.915 441.055 248.012C463.578 235.11 477.061 216.377 471.169 206.171C468.256 201.127 461.156 199.11 451.999 199.918C458.222 199.989 462.946 201.817 465.079 205.512C470.268 214.5 458.16 231.132 438.035 242.661C417.91 254.191 397.389 256.25 392.199 247.262C390.008 243.468 390.901 238.31 394.178 232.749C388.596 240.407 386.627 247.741 389.604 252.897Z"/>
</mask>
<path fill-rule="evenodd" clip-rule="evenodd" d="M389.604 252.897C395.497 263.102 418.532 260.915 441.055 248.012C463.578 235.11 477.061 216.377 471.169 206.171C468.256 201.127 461.156 199.11 451.999 199.918C458.222 199.989 462.946 201.817 465.079 205.512C470.268 214.5 458.16 231.132 438.035 242.661C417.91 254.191 397.389 256.25 392.199 247.262C390.008 243.468 390.901 238.31 394.178 232.749C388.596 240.407 386.627 247.741 389.604 252.897Z" fill="#AD1457"/>
<path d="M441.055 248.012L441.555 248.879L441.555 248.879L441.055 248.012ZM471.169 206.171L472.036 205.674L471.169 206.171ZM451.999 199.918L451.909 198.924L451.989 200.917L451.999 199.918ZM465.079 205.512L465.947 205.015L465.947 205.015L465.079 205.512ZM394.178 232.749L395.042 233.256L393.368 232.161L394.178 232.749ZM440.555 247.146C429.388 253.544 418.135 257.259 408.996 258.126C399.759 259.003 393.101 256.953 390.472 252.4L388.737 253.394C392 259.046 399.806 261.005 409.19 260.114C418.673 259.214 430.199 255.384 441.555 248.879L440.555 247.146ZM470.301 206.668C472.93 211.222 471.36 217.985 465.954 225.497C460.605 232.929 451.722 240.749 440.555 247.146L441.555 248.879C452.911 242.373 462.031 234.375 467.582 226.663C473.074 219.032 475.299 211.326 472.036 205.674L470.301 206.668ZM452.089 200.913C461.169 200.112 467.702 202.167 470.301 206.668L472.036 205.674C468.81 200.086 461.143 198.109 451.909 198.924L452.089 200.913ZM451.989 200.917C458.087 200.986 462.346 202.778 464.211 206.009L465.947 205.015C463.546 200.856 458.356 198.992 452.009 198.92L451.989 200.917ZM464.211 206.009C465.347 207.976 465.577 210.423 464.899 213.253C464.219 216.09 462.637 219.253 460.239 222.546C455.446 229.131 447.505 236.084 437.535 241.795L438.535 243.527C448.691 237.71 456.866 230.582 461.861 223.721C464.357 220.292 466.087 216.89 466.847 213.721C467.608 210.544 467.406 207.541 465.947 205.015L464.211 206.009ZM437.535 241.795C427.566 247.507 417.539 250.847 409.414 251.662C405.351 252.07 401.811 251.842 399.007 251C396.211 250.161 394.203 248.733 393.067 246.765L391.332 247.759C392.79 250.286 395.293 251.971 398.433 252.913C401.566 253.853 405.387 254.074 409.618 253.649C418.083 252.8 428.38 249.345 438.535 243.527L437.535 241.795ZM393.067 246.765C391.151 243.446 391.824 238.716 395.042 233.256L393.315 232.242C389.978 237.904 388.866 243.489 391.332 247.759L393.067 246.765ZM390.472 252.4C387.815 247.798 389.448 240.939 394.989 233.337L393.368 232.161C387.745 239.876 385.44 247.683 388.737 253.394L390.472 252.4Z" fill="#AD1457" mask="url(#path-66-outside-2_0_1)"/>
<g filter="url(#filter3_f_0_1)">
<circle cx="422.878" cy="437.531" r="31.5291" fill="#F57F17"/>
</g>
<mask id="mask3_0_1" style="mask-type:alpha" maskUnits="userSpaceOnUse" x="391" y="406" width="64" height="64">
<circle cx="423.115" cy="437.765" r="31.7646" fill="#D9D9D9"/>
</mask>
<g mask="url(#mask3_0_1)">
<path d="M395.485 469.539L406.285 406.01H409.461L398.662 469.539H395.485Z" fill="#8C4A4A"/>
<path d="M446.304 469.539L457.104 406.01H460.28L449.48 469.539H446.304Z" fill="#8C4A4A"/>
<path d="M436.772 469.539L447.572 406.01H450.748L439.948 469.539H436.772Z" fill="#B66161"/>
<path d="M392.303 469.539L403.103 406.01H406.279L395.479 469.539H392.303Z" fill="#DA8F8F"/>
<path d="M385.953 469.539L396.753 406.01H403.105L392.305 469.539H385.953Z" fill="#B66161"/>
<path d="M439.951 469.539L450.751 406.01H457.104L446.304 469.539H439.951Z" fill="#DA8F8F"/>
<path d="M398.656 469.539L409.456 406.01H418.986L408.186 469.539H398.656Z" fill="#B66161"/>
<path d="M373.242 469.539L384.042 406.01H396.748L385.948 469.539H373.242Z" fill="#DA8F8F"/>
<path d="M424.064 469.539L434.864 406.01H447.57L436.77 469.539H424.064Z" fill="#8C4A4A"/>
<path d="M408.185 469.539L418.985 406.01H434.868L424.068 469.539H408.185Z" fill="#DA8F8F"/>
<path d="M449.483 469.539L460.283 406.01H476.165L465.365 469.539H449.483Z" fill="#B66161"/>
<path d="M431.094 492.92L455.977 346.546H463.296L438.413 492.92H431.094Z" fill="#FDD835"/>
<path d="M409.138 492.92L434.022 346.546H441.341L416.457 492.92H409.138Z" fill="#FBC02D"/>
<path d="M416.455 492.92L441.339 346.546H455.976L431.093 492.92H416.455Z" fill="#F57F17"/>
<path d="M379.862 492.92L404.746 346.546H434.021L409.137 492.92H379.862Z" fill="#FDD835"/>
<path d="M343.269 492.92L368.152 346.546H404.746L379.862 492.92H343.269Z" fill="#F57F17"/>
<path d="M438.411 492.92L463.294 346.546H499.888L475.004 492.92H438.411Z" fill="#FBC02D"/>
</g>
<mask id="path-87-outside-3_0_1" maskUnits="userSpaceOnUse" x="389.237" y="423.428" width="58.3998" height="36.8205" fill="black">
<rect fill="white" x="389.237" y="423.428" width="58.3998" height="36.8205"/>
<path fill-rule="evenodd" clip-rule="evenodd" d="M442.877 424.557C435.612 425.389 426.718 428.587 417.989 433.928C405.744 441.42 397.129 451.108 394.932 458.872C398.76 452.444 406.024 445.408 415.432 439.652C425.56 433.454 435.893 430.135 443.591 430.062L442.877 424.557Z"/>
</mask>
<path fill-rule="evenodd" clip-rule="evenodd" d="M442.877 424.557C435.612 425.389 426.718 428.587 417.989 433.928C405.744 441.42 397.129 451.108 394.932 458.872C398.76 452.444 406.024 445.408 415.432 439.652C425.56 433.454 435.893 430.135 443.591 430.062L442.877 424.557Z" fill="#FFFDE7"/>
<path d="M417.989 433.928L418.511 434.781L418.511 434.781L417.989 433.928ZM442.877 424.557L443.869 424.429C443.799 423.887 443.307 423.502 442.764 423.564L442.877 424.557ZM394.932 458.872L393.969 458.599C393.833 459.082 394.075 459.592 394.536 459.79C394.997 459.988 395.534 459.814 395.791 459.383L394.932 458.872ZM415.432 439.652L414.91 438.799L414.91 438.799L415.432 439.652ZM443.591 430.062L443.6 431.062C443.886 431.059 444.157 430.934 444.345 430.718C444.533 430.503 444.619 430.217 444.582 429.933L443.591 430.062ZM418.511 434.781C427.146 429.497 435.902 426.362 442.991 425.551L442.764 423.564C435.322 424.416 426.29 427.676 417.467 433.075L418.511 434.781ZM395.894 459.144C396.935 455.466 399.531 451.237 403.43 446.973C407.32 442.72 412.46 438.483 418.511 434.781L417.467 433.075C411.273 436.865 405.983 441.218 401.955 445.623C397.936 450.017 395.126 454.514 393.969 458.599L395.894 459.144ZM414.91 438.799C405.406 444.614 398.006 451.756 394.072 458.36L395.791 459.383C399.513 453.133 406.642 446.203 415.954 440.505L414.91 438.799ZM443.581 429.062C435.646 429.137 425.136 432.541 414.91 438.799L415.954 440.505C425.984 434.367 436.14 431.133 443.6 431.062L443.581 429.062ZM444.582 429.933L443.869 424.429L441.886 424.686L442.599 430.19L444.582 429.933Z" fill="#FFFDE7" mask="url(#path-87-outside-3_0_1)"/>
<path d="M449.658 417.644L447.128 413.513C446.233 412.052 444.05 412.251 443.435 413.85L441.695 418.372C441.569 418.7 441.289 418.945 440.948 419.027L436.237 420.157C434.57 420.556 434.085 422.693 435.416 423.773L439.179 426.825C439.452 427.046 439.598 427.388 439.571 427.738L439.189 432.568C439.055 434.276 440.937 435.398 442.375 434.465L446.441 431.83C446.736 431.639 447.106 431.605 447.43 431.74L451.906 433.595C453.489 434.251 455.137 432.807 454.695 431.151L453.445 426.47C453.354 426.131 453.437 425.769 453.665 425.501L456.812 421.818C457.925 420.515 457.061 418.501 455.35 418.41L450.512 418.153C450.161 418.134 449.842 417.944 449.658 417.644Z" fill="#FFFDE7" stroke="#FFFDE7"/>
<defs>
<filter id="filter0_f_0_1" x="155" y="44" width="105.511" height="105.511" filterUnits="userSpaceOnUse" color-interpolation-filters="sRGB">
<feFlood flood-opacity="0" result="BackgroundImageFix"/>
<feBlend mode="normal" in="SourceGraphic" in2="BackgroundImageFix" result="shape"/>
<feGaussianBlur stdDeviation="10" result="effect1_foregroundBlur_0_1"/>
</filter>
<filter id="filter1_f_0_1" x="173" y="214.815" width="105.511" height="105.511" filterUnits="userSpaceOnUse" color-interpolation-filters="sRGB">
<feFlood flood-opacity="0" result="BackgroundImageFix"/>
<feBlend mode="normal" in="SourceGraphic" in2="BackgroundImageFix" result="shape"/>
<feGaussianBlur stdDeviation="10" result="effect1_foregroundBlur_0_1"/>
</filter>
<filter id="filter2_f_0_1" x="348.498" y="148.157" width="167.552" height="167.552" filterUnits="userSpaceOnUse" color-interpolation-filters="sRGB">
<feFlood flood-opacity="0" result="BackgroundImageFix"/>
<feBlend mode="normal" in="SourceGraphic" in2="BackgroundImageFix" result="shape"/>
<feGaussianBlur stdDeviation="25" result="effect1_foregroundBlur_0_1"/>
</filter>
<filter id="filter3_f_0_1" x="371.349" y="386.002" width="103.058" height="103.058" filterUnits="userSpaceOnUse" color-interpolation-filters="sRGB">
<feFlood flood-opacity="0" result="BackgroundImageFix"/>
<feBlend mode="normal" in="SourceGraphic" in2="BackgroundImageFix" result="shape"/>
<feGaussianBlur stdDeviation="10" result="effect1_foregroundBlur_0_1"/>
</filter>
</defs>
</svg>
