<svg width="475" height="66" viewBox="0 0 475 66" fill="none" xmlns="http://www.w3.org/2000/svg">
<path d="M82.6485 66L110.749 0H119.014L90.9133 66H82.6485Z" fill="#CE93D8"/>
<path d="M148.767 66L176.867 0H185.132L157.032 66H148.767Z" fill="#CE93D8"/>
<path d="M281.005 66L309.105 0H317.37L289.27 66H281.005Z" fill="#CE93D8"/>
<path d="M355.388 66L383.489 0H391.753L363.653 66H355.388Z" fill="#7B1FA2"/>
<path d="M256.21 66L284.31 0H292.575L264.475 66H256.21Z" fill="#7B1FA2"/>
<path d="M140.502 66L168.603 0H176.868L148.767 66H140.502Z" fill="#AB47BC"/>
<path d="M41.3242 66L69.4246 0H85.9543L57.8538 66H41.3242Z" fill="#AB47BC"/>
<path d="M123.973 66L152.073 0H168.603L140.502 66H123.973Z" fill="#7B1FA2"/>
<path d="M264.475 66L292.575 0H309.105L281.005 66H264.475Z" fill="#AB47BC"/>
<path d="M57.854 66L85.9544 0H110.749L82.6485 66H57.854Z" fill="#7B1FA2"/>
<path d="M157.032 66L185.132 0H209.927L181.826 66H157.032Z" fill="#7B1FA2"/>
<path d="M330.594 66L358.694 0H383.489L355.388 66H330.594Z" fill="#AB47BC"/>
<path d="M90.9131 66L119.014 0H152.073L123.972 66H90.9131Z" fill="#AB47BC"/>
<path d="M223.151 66L251.251 0H284.311L256.21 66H223.151Z" fill="#CE93D8"/>
<path d="M0 66L28.1005 0H69.4247L41.3242 66H0Z" fill="#CE93D8"/>
<path d="M363.653 66L391.753 0H433.077L404.977 66H363.653Z" fill="#CE93D8"/>
<path d="M181.826 66L209.927 0H251.251L223.151 66H181.826Z" fill="#AB47BC"/>
<path d="M289.269 66L317.37 0H358.694L330.594 66H289.269Z" fill="#7B1FA2"/>
<path d="M405.324 66L433.425 0H449.954L421.854 66H405.324Z" fill="#AB47BC"/>
<path d="M421.854 66L449.954 0H474.749L446.649 66H421.854Z" fill="#7B1FA2"/>
<path d="M364 66L392.1 0H433.425L405.324 66H364Z" fill="#CE93D8"/>
</svg>
