<svg width="475" height="66" viewBox="0 0 475 66" fill="none" xmlns="http://www.w3.org/2000/svg">
<path d="M82.6484 66.0001L110.749 0.00012207H119.014L90.9132 66.0001H82.6484Z" fill="#D81B60"/>
<path d="M148.767 66.0001L176.868 0.00012207H185.133L157.032 66.0001H148.767Z" fill="#D81B60"/>
<path d="M281.005 66.0001L309.105 0.00012207H317.37L289.269 66.0001H281.005Z" fill="#D81B60"/>
<path d="M355.388 66.0001L383.489 0.00012207H391.753L363.653 66.0001H355.388Z" fill="#F06292"/>
<path d="M256.21 66.0001L284.311 0.00012207H292.575L264.475 66.0001H256.21Z" fill="#F06292"/>
<path d="M140.502 66.0001L168.603 0.00012207H176.868L148.767 66.0001H140.502Z" fill="#AD1457"/>
<path d="M41.3241 66.0001L69.4245 0.00012207H85.9542L57.8538 66.0001H41.3241Z" fill="#AD1457"/>
<path d="M123.973 66.0001L152.073 0.00012207H168.603L140.502 66.0001H123.973Z" fill="#F06292"/>
<path d="M264.475 66.0001L292.575 0.00012207H309.105L281.004 66.0001H264.475Z" fill="#AD1457"/>
<path d="M57.8539 66.0001L85.9543 0.00012207H110.749L82.6484 66.0001H57.8539Z" fill="#F06292"/>
<path d="M157.032 66.0001L185.132 0.00012207H209.927L181.826 66.0001H157.032Z" fill="#F06292"/>
<path d="M330.594 66.0001L358.694 0.00012207H383.489L355.388 66.0001H330.594Z" fill="#AD1457"/>
<path d="M90.9133 66.0001L119.014 0.00012207H152.073L123.973 66.0001H90.9133Z" fill="#AD1457"/>
<path d="M223.151 66.0001L251.251 0.00012207H284.311L256.21 66.0001H223.151Z" fill="#D81B60"/>
<path d="M0 66L28.1005 0H69.4247L41.3242 66H0Z" fill="#D81B60"/>
<path d="M363.653 66.0001L391.753 0.00012207H433.078L404.977 66.0001H363.653Z" fill="#D81B60"/>
<path d="M181.826 66.0001L209.927 0.00012207H251.251L223.151 66.0001H181.826Z" fill="#AD1457"/>
<path d="M289.269 66.0001L317.37 0.00012207H358.694L330.593 66.0001H289.269Z" fill="#F06292"/>
<path d="M405.324 66.0001L433.425 0.00012207H449.954L421.854 66.0001H405.324Z" fill="#AD1457"/>
<path d="M421.854 66.0001L449.954 0.00012207H474.749L446.648 66.0001H421.854Z" fill="#F06292"/>
<path d="M364 66L392.1 0H433.425L405.324 66H364Z" fill="#D81B60"/>
</svg>
