<svg width="1440" height="1024" viewBox="0 0 1440 1024" fill="none" xmlns="http://www.w3.org/2000/svg">
<g opacity="0.3">
<path d="M639.124 944.256C639.259 943.915 639.741 943.915 639.876 944.256L640.623 946.15C640.664 946.254 640.746 946.336 640.85 946.377L642.744 947.124C643.085 947.259 643.085 947.741 642.744 947.876L640.85 948.623C640.746 948.664 640.664 948.746 640.623 948.85L639.876 950.744C639.741 951.085 639.259 951.085 639.124 950.744L638.377 948.85C638.336 948.746 638.254 948.664 638.15 948.623L636.256 947.876C635.915 947.741 635.915 947.259 636.256 947.124L638.15 946.377C638.254 946.336 638.336 946.254 638.377 946.15L639.124 944.256Z" fill="#EEEFFF"/>
<path d="M662.124 918.256C662.259 917.915 662.741 917.915 662.876 918.256L663.623 920.15C663.664 920.254 663.746 920.336 663.85 920.377L665.744 921.124C666.085 921.259 666.085 921.741 665.744 921.876L663.85 922.623C663.746 922.664 663.664 922.746 663.623 922.85L662.876 924.744C662.741 925.085 662.259 925.085 662.124 924.744L661.377 922.85C661.336 922.746 661.254 922.664 661.15 922.623L659.256 921.876C658.915 921.741 658.915 921.259 659.256 921.124L661.15 920.377C661.254 920.336 661.336 920.254 661.377 920.15L662.124 918.256Z" fill="#EEEFFF"/>
<path d="M449.124 784.256C449.259 783.915 449.741 783.915 449.876 784.256L450.623 786.15C450.664 786.254 450.746 786.336 450.85 786.377L452.744 787.124C453.085 787.259 453.085 787.741 452.744 787.876L450.85 788.623C450.746 788.664 450.664 788.746 450.623 788.85L449.876 790.744C449.741 791.085 449.259 791.085 449.124 790.744L448.377 788.85C448.336 788.746 448.254 788.664 448.15 788.623L446.256 787.876C445.915 787.741 445.915 787.259 446.256 787.124L448.15 786.377C448.254 786.336 448.336 786.254 448.377 786.15L449.124 784.256Z" fill="#EEEFFF"/>
<path d="M1190.12 958.256C1190.26 957.915 1190.74 957.915 1190.88 958.256L1191.62 960.15C1191.66 960.254 1191.75 960.336 1191.85 960.377L1193.74 961.124C1194.09 961.259 1194.09 961.741 1193.74 961.876L1191.85 962.623C1191.75 962.664 1191.66 962.746 1191.62 962.85L1190.88 964.744C1190.74 965.085 1190.26 965.085 1190.12 964.744L1189.38 962.85C1189.34 962.746 1189.25 962.664 1189.15 962.623L1187.26 961.876C1186.91 961.741 1186.91 961.259 1187.26 961.124L1189.15 960.377C1189.25 960.336 1189.34 960.254 1189.38 960.15L1190.12 958.256Z" fill="#EEEFFF"/>
<path d="M652.124 72.2556C652.259 71.9148 652.741 71.9148 652.876 72.2556L653.623 74.1498C653.664 74.2539 653.746 74.3363 653.85 74.3773L655.744 75.1244C656.085 75.2588 656.085 75.7412 655.744 75.8756L653.85 76.6227C653.746 76.6637 653.664 76.7461 653.623 76.8502L652.876 78.7444C652.741 79.0852 652.259 79.0852 652.124 78.7444L651.377 76.8502C651.336 76.7461 651.254 76.6637 651.15 76.6227L649.256 75.8756C648.915 75.7412 648.915 75.2588 649.256 75.1244L651.15 74.3773C651.254 74.3363 651.336 74.2539 651.377 74.1498L652.124 72.2556Z" fill="#EEEFFF"/>
<path d="M1388.12 844.256C1388.26 843.915 1388.74 843.915 1388.88 844.256L1389.62 846.15C1389.66 846.254 1389.75 846.336 1389.85 846.377L1391.74 847.124C1392.09 847.259 1392.09 847.741 1391.74 847.876L1389.85 848.623C1389.75 848.664 1389.66 848.746 1389.62 848.85L1388.88 850.744C1388.74 851.085 1388.26 851.085 1388.12 850.744L1387.38 848.85C1387.34 848.746 1387.25 848.664 1387.15 848.623L1385.26 847.876C1384.91 847.741 1384.91 847.259 1385.26 847.124L1387.15 846.377C1387.25 846.336 1387.34 846.254 1387.38 846.15L1388.12 844.256Z" fill="#EEEFFF"/>
<path d="M1419.12 761.256C1419.26 760.915 1419.74 760.915 1419.88 761.256L1420.62 763.15C1420.66 763.254 1420.75 763.336 1420.85 763.377L1422.74 764.124C1423.09 764.259 1423.09 764.741 1422.74 764.876L1420.85 765.623C1420.75 765.664 1420.66 765.746 1420.62 765.85L1419.88 767.744C1419.74 768.085 1419.26 768.085 1419.12 767.744L1418.38 765.85C1418.34 765.746 1418.25 765.664 1418.15 765.623L1416.26 764.876C1415.91 764.741 1415.91 764.259 1416.26 764.124L1418.15 763.377C1418.25 763.336 1418.34 763.254 1418.38 763.15L1419.12 761.256Z" fill="#EEEFFF"/>
<path d="M1139.12 657.256C1139.26 656.915 1139.74 656.915 1139.88 657.256L1140.62 659.15C1140.66 659.254 1140.75 659.336 1140.85 659.377L1142.74 660.124C1143.09 660.259 1143.09 660.741 1142.74 660.876L1140.85 661.623C1140.75 661.664 1140.66 661.746 1140.62 661.85L1139.88 663.744C1139.74 664.085 1139.26 664.085 1139.12 663.744L1138.38 661.85C1138.34 661.746 1138.25 661.664 1138.15 661.623L1136.26 660.876C1135.91 660.741 1135.91 660.259 1136.26 660.124L1138.15 659.377C1138.25 659.336 1138.34 659.254 1138.38 659.15L1139.12 657.256Z" fill="#EEEFFF"/>
<path d="M1122.12 666.256C1122.26 665.915 1122.74 665.915 1122.88 666.256L1123.62 668.15C1123.66 668.254 1123.75 668.336 1123.85 668.377L1125.74 669.124C1126.09 669.259 1126.09 669.741 1125.74 669.876L1123.85 670.623C1123.75 670.664 1123.66 670.746 1123.62 670.85L1122.88 672.744C1122.74 673.085 1122.26 673.085 1122.12 672.744L1121.38 670.85C1121.34 670.746 1121.25 670.664 1121.15 670.623L1119.26 669.876C1118.91 669.741 1118.91 669.259 1119.26 669.124L1121.15 668.377C1121.25 668.336 1121.34 668.254 1121.38 668.15L1122.12 666.256Z" fill="#EEEFFF"/>
<path d="M1258.12 772.256C1258.26 771.915 1258.74 771.915 1258.88 772.256L1259.62 774.15C1259.66 774.254 1259.75 774.336 1259.85 774.377L1261.74 775.124C1262.09 775.259 1262.09 775.741 1261.74 775.876L1259.85 776.623C1259.75 776.664 1259.66 776.746 1259.62 776.85L1258.88 778.744C1258.74 779.085 1258.26 779.085 1258.12 778.744L1257.38 776.85C1257.34 776.746 1257.25 776.664 1257.15 776.623L1255.26 775.876C1254.91 775.741 1254.91 775.259 1255.26 775.124L1257.15 774.377C1257.25 774.336 1257.34 774.254 1257.38 774.15L1258.12 772.256Z" fill="#EEEFFF"/>
<path d="M1036.12 795.256C1036.26 794.915 1036.74 794.915 1036.88 795.256L1037.62 797.15C1037.66 797.254 1037.75 797.336 1037.85 797.377L1039.74 798.124C1040.09 798.259 1040.09 798.741 1039.74 798.876L1037.85 799.623C1037.75 799.664 1037.66 799.746 1037.62 799.85L1036.88 801.744C1036.74 802.085 1036.26 802.085 1036.12 801.744L1035.38 799.85C1035.34 799.746 1035.25 799.664 1035.15 799.623L1033.26 798.876C1032.91 798.741 1032.91 798.259 1033.26 798.124L1035.15 797.377C1035.25 797.336 1035.34 797.254 1035.38 797.15L1036.12 795.256Z" fill="#EEEFFF"/>
<path d="M928.124 657.256C928.259 656.915 928.741 656.915 928.876 657.256L929.623 659.15C929.664 659.254 929.746 659.336 929.85 659.377L931.744 660.124C932.085 660.259 932.085 660.741 931.744 660.876L929.85 661.623C929.746 661.664 929.664 661.746 929.623 661.85L928.876 663.744C928.741 664.085 928.259 664.085 928.124 663.744L927.377 661.85C927.336 661.746 927.254 661.664 927.15 661.623L925.256 660.876C924.915 660.741 924.915 660.259 925.256 660.124L927.15 659.377C927.254 659.336 927.336 659.254 927.377 659.15L928.124 657.256Z" fill="#EEEFFF"/>
<path d="M1054.12 788.256C1054.26 787.915 1054.74 787.915 1054.88 788.256L1055.62 790.15C1055.66 790.254 1055.75 790.336 1055.85 790.377L1057.74 791.124C1058.09 791.259 1058.09 791.741 1057.74 791.876L1055.85 792.623C1055.75 792.664 1055.66 792.746 1055.62 792.85L1054.88 794.744C1054.74 795.085 1054.26 795.085 1054.12 794.744L1053.38 792.85C1053.34 792.746 1053.25 792.664 1053.15 792.623L1051.26 791.876C1050.91 791.741 1050.91 791.259 1051.26 791.124L1053.15 790.377C1053.25 790.336 1053.34 790.254 1053.38 790.15L1054.12 788.256Z" fill="#EEEFFF"/>
<path d="M849.124 849.256C849.259 848.915 849.741 848.915 849.876 849.256L850.623 851.15C850.664 851.254 850.746 851.336 850.85 851.377L852.744 852.124C853.085 852.259 853.085 852.741 852.744 852.876L850.85 853.623C850.746 853.664 850.664 853.746 850.623 853.85L849.876 855.744C849.741 856.085 849.259 856.085 849.124 855.744L848.377 853.85C848.336 853.746 848.254 853.664 848.15 853.623L846.256 852.876C845.915 852.741 845.915 852.259 846.256 852.124L848.15 851.377C848.254 851.336 848.336 851.254 848.377 851.15L849.124 849.256Z" fill="#EEEFFF"/>
<path d="M812.124 859.256C812.259 858.915 812.741 858.915 812.876 859.256L813.623 861.15C813.664 861.254 813.746 861.336 813.85 861.377L815.744 862.124C816.085 862.259 816.085 862.741 815.744 862.876L813.85 863.623C813.746 863.664 813.664 863.746 813.623 863.85L812.876 865.744C812.741 866.085 812.259 866.085 812.124 865.744L811.377 863.85C811.336 863.746 811.254 863.664 811.15 863.623L809.256 862.876C808.915 862.741 808.915 862.259 809.256 862.124L811.15 861.377C811.254 861.336 811.336 861.254 811.377 861.15L812.124 859.256Z" fill="#EEEFFF"/>
<path d="M1412.12 949.256C1412.26 948.915 1412.74 948.915 1412.88 949.256L1413.62 951.15C1413.66 951.254 1413.75 951.336 1413.85 951.377L1415.74 952.124C1416.09 952.259 1416.09 952.741 1415.74 952.876L1413.85 953.623C1413.75 953.664 1413.66 953.746 1413.62 953.85L1412.88 955.744C1412.74 956.085 1412.26 956.085 1412.12 955.744L1411.38 953.85C1411.34 953.746 1411.25 953.664 1411.15 953.623L1409.26 952.876C1408.91 952.741 1408.91 952.259 1409.26 952.124L1411.15 951.377C1411.25 951.336 1411.34 951.254 1411.38 951.15L1412.12 949.256Z" fill="#EEEFFF"/>
<path d="M1209.12 939.256C1209.26 938.915 1209.74 938.915 1209.88 939.256L1210.62 941.15C1210.66 941.254 1210.75 941.336 1210.85 941.377L1212.74 942.124C1213.09 942.259 1213.09 942.741 1212.74 942.876L1210.85 943.623C1210.75 943.664 1210.66 943.746 1210.62 943.85L1209.88 945.744C1209.74 946.085 1209.26 946.085 1209.12 945.744L1208.38 943.85C1208.34 943.746 1208.25 943.664 1208.15 943.623L1206.26 942.876C1205.91 942.741 1205.91 942.259 1206.26 942.124L1208.15 941.377C1208.25 941.336 1208.34 941.254 1208.38 941.15L1209.12 939.256Z" fill="#EEEFFF"/>
<path d="M1060.12 913.256C1060.26 912.915 1060.74 912.915 1060.88 913.256L1061.62 915.15C1061.66 915.254 1061.75 915.336 1061.85 915.377L1063.74 916.124C1064.09 916.259 1064.09 916.741 1063.74 916.876L1061.85 917.623C1061.75 917.664 1061.66 917.746 1061.62 917.85L1060.88 919.744C1060.74 920.085 1060.26 920.085 1060.12 919.744L1059.38 917.85C1059.34 917.746 1059.25 917.664 1059.15 917.623L1057.26 916.876C1056.91 916.741 1056.91 916.259 1057.26 916.124L1059.15 915.377C1059.25 915.336 1059.34 915.254 1059.38 915.15L1060.12 913.256Z" fill="#EEEFFF"/>
<path d="M888.124 944.256C888.259 943.915 888.741 943.915 888.876 944.256L889.623 946.15C889.664 946.254 889.746 946.336 889.85 946.377L891.744 947.124C892.085 947.259 892.085 947.741 891.744 947.876L889.85 948.623C889.746 948.664 889.664 948.746 889.623 948.85L888.876 950.744C888.741 951.085 888.259 951.085 888.124 950.744L887.377 948.85C887.336 948.746 887.254 948.664 887.15 948.623L885.256 947.876C884.915 947.741 884.915 947.259 885.256 947.124L887.15 946.377C887.254 946.336 887.336 946.254 887.377 946.15L888.124 944.256Z" fill="#EEEFFF"/>
<path d="M1379.88 94.7444C1379.74 95.0852 1379.26 95.0852 1379.12 94.7444L1378.38 92.8502C1378.34 92.7461 1378.25 92.6637 1378.15 92.6227L1376.26 91.8756C1375.91 91.7412 1375.91 91.2588 1376.26 91.1244L1378.15 90.3773C1378.25 90.3363 1378.34 90.2539 1378.38 90.1498L1379.12 88.2556C1379.26 87.9148 1379.74 87.9148 1379.88 88.2556L1380.62 90.1498C1380.66 90.2539 1380.75 90.3363 1380.85 90.3773L1382.74 91.1244C1383.09 91.2588 1383.09 91.7412 1382.74 91.8756L1380.85 92.6227C1380.75 92.6637 1380.66 92.7461 1380.62 92.8502L1379.88 94.7444Z" fill="#EEEFFF"/>
<path d="M1430.88 78.7444C1430.74 79.0852 1430.26 79.0852 1430.12 78.7444L1429.38 76.8502C1429.34 76.7461 1429.25 76.6637 1429.15 76.6227L1427.26 75.8756C1426.91 75.7412 1426.91 75.2588 1427.26 75.1244L1429.15 74.3773C1429.25 74.3363 1429.34 74.2539 1429.38 74.1498L1430.12 72.2556C1430.26 71.9148 1430.74 71.9148 1430.88 72.2556L1431.62 74.1498C1431.66 74.2539 1431.75 74.3363 1431.85 74.3773L1433.74 75.1244C1434.09 75.2588 1434.09 75.7412 1433.74 75.8756L1431.85 76.6227C1431.75 76.6637 1431.66 76.7461 1431.62 76.8502L1430.88 78.7444Z" fill="#EEEFFF"/>
<path d="M1063.88 -0.255643C1063.74 0.0852143 1063.26 0.0852142 1063.12 -0.255643L1062.38 -2.14983C1062.34 -2.2539 1062.25 -2.33627 1062.15 -2.37731L1060.26 -3.12437C1059.91 -3.2588 1059.91 -3.7412 1060.26 -3.87563L1062.15 -4.62269C1062.25 -4.66373 1062.34 -4.74611 1062.38 -4.85017L1063.12 -6.74436C1063.26 -7.08521 1063.74 -7.08521 1063.88 -6.74436L1064.62 -4.85017C1064.66 -4.74611 1064.75 -4.66373 1064.85 -4.62269L1066.74 -3.87563C1067.09 -3.7412 1067.09 -3.2588 1066.74 -3.12437L1064.85 -2.37731C1064.75 -2.33627 1064.66 -2.2539 1064.62 -2.14983L1063.88 -0.255643Z" fill="#EEEFFF"/>
<path d="M805.876 507.744C805.741 508.085 805.259 508.085 805.124 507.744L804.377 505.85C804.336 505.746 804.254 505.664 804.15 505.623L802.256 504.876C801.915 504.741 801.915 504.259 802.256 504.124L804.15 503.377C804.254 503.336 804.336 503.254 804.377 503.15L805.124 501.256C805.259 500.915 805.741 500.915 805.876 501.256L806.623 503.15C806.664 503.254 806.746 503.336 806.85 503.377L808.744 504.124C809.085 504.259 809.085 504.741 808.744 504.876L806.85 505.623C806.746 505.664 806.664 505.746 806.623 505.85L805.876 507.744Z" fill="#EEEFFF"/>
<path d="M826.876 485.744C826.741 486.085 826.259 486.085 826.124 485.744L825.377 483.85C825.336 483.746 825.254 483.664 825.15 483.623L823.256 482.876C822.915 482.741 822.915 482.259 823.256 482.124L825.15 481.377C825.254 481.336 825.336 481.254 825.377 481.15L826.124 479.256C826.259 478.915 826.741 478.915 826.876 479.256L827.623 481.15C827.664 481.254 827.746 481.336 827.85 481.377L829.744 482.124C830.085 482.259 830.085 482.741 829.744 482.876L827.85 483.623C827.746 483.664 827.664 483.746 827.623 483.85L826.876 485.744Z" fill="#EEEFFF"/>
<path d="M768.876 660.744C768.741 661.085 768.259 661.085 768.124 660.744L767.377 658.85C767.336 658.746 767.254 658.664 767.15 658.623L765.256 657.876C764.915 657.741 764.915 657.259 765.256 657.124L767.15 656.377C767.254 656.336 767.336 656.254 767.377 656.15L768.124 654.256C768.259 653.915 768.741 653.915 768.876 654.256L769.623 656.15C769.664 656.254 769.746 656.336 769.85 656.377L771.744 657.124C772.085 657.259 772.085 657.741 771.744 657.876L769.85 658.623C769.746 658.664 769.664 658.746 769.623 658.85L768.876 660.744Z" fill="#EEEFFF"/>
<path d="M740.876 633.744C740.741 634.085 740.259 634.085 740.124 633.744L739.377 631.85C739.336 631.746 739.254 631.664 739.15 631.623L737.256 630.876C736.915 630.741 736.915 630.259 737.256 630.124L739.15 629.377C739.254 629.336 739.336 629.254 739.377 629.15L740.124 627.256C740.259 626.915 740.741 626.915 740.876 627.256L741.623 629.15C741.664 629.254 741.746 629.336 741.85 629.377L743.744 630.124C744.085 630.259 744.085 630.741 743.744 630.876L741.85 631.623C741.746 631.664 741.664 631.746 741.623 631.85L740.876 633.744Z" fill="#EEEFFF"/>
<path d="M540.876 477.744C540.741 478.085 540.259 478.085 540.124 477.744L539.377 475.85C539.336 475.746 539.254 475.664 539.15 475.623L537.256 474.876C536.915 474.741 536.915 474.259 537.256 474.124L539.15 473.377C539.254 473.336 539.336 473.254 539.377 473.15L540.124 471.256C540.259 470.915 540.741 470.915 540.876 471.256L541.623 473.15C541.664 473.254 541.746 473.336 541.85 473.377L543.744 474.124C544.085 474.259 544.085 474.741 543.744 474.876L541.85 475.623C541.746 475.664 541.664 475.746 541.623 475.85L540.876 477.744Z" fill="#EEEFFF"/>
<path d="M555.876 491.744C555.741 492.085 555.259 492.085 555.124 491.744L554.377 489.85C554.336 489.746 554.254 489.664 554.15 489.623L552.256 488.876C551.915 488.741 551.915 488.259 552.256 488.124L554.15 487.377C554.254 487.336 554.336 487.254 554.377 487.15L555.124 485.256C555.259 484.915 555.741 484.915 555.876 485.256L556.623 487.15C556.664 487.254 556.746 487.336 556.85 487.377L558.744 488.124C559.085 488.259 559.085 488.741 558.744 488.876L556.85 489.623C556.746 489.664 556.664 489.746 556.623 489.85L555.876 491.744Z" fill="#EEEFFF"/>
<path d="M348.876 488.744C348.741 489.085 348.259 489.085 348.124 488.744L347.377 486.85C347.336 486.746 347.254 486.664 347.15 486.623L345.256 485.876C344.915 485.741 344.915 485.259 345.256 485.124L347.15 484.377C347.254 484.336 347.336 484.254 347.377 484.15L348.124 482.256C348.259 481.915 348.741 481.915 348.876 482.256L349.623 484.15C349.664 484.254 349.746 484.336 349.85 484.377L351.744 485.124C352.085 485.259 352.085 485.741 351.744 485.876L349.85 486.623C349.746 486.664 349.664 486.746 349.623 486.85L348.876 488.744Z" fill="#EEEFFF"/>
<path d="M372.876 465.744C372.741 466.085 372.259 466.085 372.124 465.744L371.377 463.85C371.336 463.746 371.254 463.664 371.15 463.623L369.256 462.876C368.915 462.741 368.915 462.259 369.256 462.124L371.15 461.377C371.254 461.336 371.336 461.254 371.377 461.15L372.124 459.256C372.259 458.915 372.741 458.915 372.876 459.256L373.623 461.15C373.664 461.254 373.746 461.336 373.85 461.377L375.744 462.124C376.085 462.259 376.085 462.741 375.744 462.876L373.85 463.623C373.746 463.664 373.664 463.746 373.623 463.85L372.876 465.744Z" fill="#EEEFFF"/>
<path d="M377.876 605.744C377.741 606.085 377.259 606.085 377.124 605.744L376.377 603.85C376.336 603.746 376.254 603.664 376.15 603.623L374.256 602.876C373.915 602.741 373.915 602.259 374.256 602.124L376.15 601.377C376.254 601.336 376.336 601.254 376.377 601.15L377.124 599.256C377.259 598.915 377.741 598.915 377.876 599.256L378.623 601.15C378.664 601.254 378.746 601.336 378.85 601.377L380.744 602.124C381.085 602.259 381.085 602.741 380.744 602.876L378.85 603.623C378.746 603.664 378.664 603.746 378.623 603.85L377.876 605.744Z" fill="#EEEFFF"/>
<path d="M218.876 555.744C218.741 556.085 218.259 556.085 218.124 555.744L217.377 553.85C217.336 553.746 217.254 553.664 217.15 553.623L215.256 552.876C214.915 552.741 214.915 552.259 215.256 552.124L217.15 551.377C217.254 551.336 217.336 551.254 217.377 551.15L218.124 549.256C218.259 548.915 218.741 548.915 218.876 549.256L219.623 551.15C219.664 551.254 219.746 551.336 219.85 551.377L221.744 552.124C222.085 552.259 222.085 552.741 221.744 552.876L219.85 553.623C219.746 553.664 219.664 553.746 219.623 553.85L218.876 555.744Z" fill="#EEEFFF"/>
<path d="M201.876 577.744C201.741 578.085 201.259 578.085 201.124 577.744L200.377 575.85C200.336 575.746 200.254 575.664 200.15 575.623L198.256 574.876C197.915 574.741 197.915 574.259 198.256 574.124L200.15 573.377C200.254 573.336 200.336 573.254 200.377 573.15L201.124 571.256C201.259 570.915 201.741 570.915 201.876 571.256L202.623 573.15C202.664 573.254 202.746 573.336 202.85 573.377L204.744 574.124C205.085 574.259 205.085 574.741 204.744 574.876L202.85 575.623C202.746 575.664 202.664 575.746 202.623 575.85L201.876 577.744Z" fill="#EEEFFF"/>
<path d="M191.876 488.744C191.741 489.085 191.259 489.085 191.124 488.744L190.377 486.85C190.336 486.746 190.254 486.664 190.15 486.623L188.256 485.876C187.915 485.741 187.915 485.259 188.256 485.124L190.15 484.377C190.254 484.336 190.336 484.254 190.377 484.15L191.124 482.256C191.259 481.915 191.741 481.915 191.876 482.256L192.623 484.15C192.664 484.254 192.746 484.336 192.85 484.377L194.744 485.124C195.085 485.259 195.085 485.741 194.744 485.876L192.85 486.623C192.746 486.664 192.664 486.746 192.623 486.85L191.876 488.744Z" fill="#EEEFFF"/>
<path d="M78.8756 660.744C78.7412 661.085 78.2588 661.085 78.1244 660.744L77.3773 658.85C77.3363 658.746 77.2539 658.664 77.1498 658.623L75.2556 657.876C74.9148 657.741 74.9148 657.259 75.2556 657.124L77.1498 656.377C77.2539 656.336 77.3363 656.254 77.3773 656.15L78.1244 654.256C78.2588 653.915 78.7412 653.915 78.8756 654.256L79.6227 656.15C79.6637 656.254 79.7461 656.336 79.8502 656.377L81.7444 657.124C82.0852 657.259 82.0852 657.741 81.7444 657.876L79.8502 658.623C79.7461 658.664 79.6637 658.746 79.6227 658.85L78.8756 660.744Z" fill="#EEEFFF"/>
<path d="M51.8756 672.744C51.7412 673.085 51.2588 673.085 51.1244 672.744L50.3773 670.85C50.3363 670.746 50.2539 670.664 50.1498 670.623L48.2556 669.876C47.9148 669.741 47.9148 669.259 48.2556 669.124L50.1498 668.377C50.2539 668.336 50.3363 668.254 50.3773 668.15L51.1244 666.256C51.2588 665.915 51.7412 665.915 51.8756 666.256L52.6227 668.15C52.6637 668.254 52.7461 668.336 52.8502 668.377L54.7444 669.124C55.0852 669.259 55.0852 669.741 54.7444 669.876L52.8502 670.623C52.7461 670.664 52.6637 670.746 52.6227 670.85L51.8756 672.744Z" fill="#EEEFFF"/>
<path d="M75.8756 468.744C75.7412 469.085 75.2588 469.085 75.1244 468.744L74.3773 466.85C74.3363 466.746 74.2539 466.664 74.1498 466.623L72.2556 465.876C71.9148 465.741 71.9148 465.259 72.2556 465.124L74.1498 464.377C74.2539 464.336 74.3363 464.254 74.3773 464.15L75.1244 462.256C75.2588 461.915 75.7412 461.915 75.8756 462.256L76.6227 464.15C76.6637 464.254 76.7461 464.336 76.8502 464.377L78.7444 465.124C79.0852 465.259 79.0852 465.741 78.7444 465.876L76.8502 466.623C76.7461 466.664 76.6637 466.746 76.6227 466.85L75.8756 468.744Z" fill="#EEEFFF"/>
<path d="M95.8756 543.744C95.7412 544.085 95.2588 544.085 95.1244 543.744L94.3773 541.85C94.3363 541.746 94.2539 541.664 94.1498 541.623L92.2556 540.876C91.9148 540.741 91.9148 540.259 92.2556 540.124L94.1498 539.377C94.2539 539.336 94.3363 539.254 94.3773 539.15L95.1244 537.256C95.2588 536.915 95.7412 536.915 95.8756 537.256L96.6227 539.15C96.6637 539.254 96.7461 539.336 96.8502 539.377L98.7444 540.124C99.0852 540.259 99.0852 540.741 98.7444 540.876L96.8502 541.623C96.7461 541.664 96.6637 541.746 96.6227 541.85L95.8756 543.744Z" fill="#EEEFFF"/>
<path d="M255.876 963.744C255.741 964.085 255.259 964.085 255.124 963.744L254.377 961.85C254.336 961.746 254.254 961.664 254.15 961.623L252.256 960.876C251.915 960.741 251.915 960.259 252.256 960.124L254.15 959.377C254.254 959.336 254.336 959.254 254.377 959.15L255.124 957.256C255.259 956.915 255.741 956.915 255.876 957.256L256.623 959.15C256.664 959.254 256.746 959.336 256.85 959.377L258.744 960.124C259.085 960.259 259.085 960.741 258.744 960.876L256.85 961.623C256.746 961.664 256.664 961.746 256.623 961.85L255.876 963.744Z" fill="#EEEFFF"/>
<path d="M296.876 938.744C296.741 939.085 296.259 939.085 296.124 938.744L295.377 936.85C295.336 936.746 295.254 936.664 295.15 936.623L293.256 935.876C292.915 935.741 292.915 935.259 293.256 935.124L295.15 934.377C295.254 934.336 295.336 934.254 295.377 934.15L296.124 932.256C296.259 931.915 296.741 931.915 296.876 932.256L297.623 934.15C297.664 934.254 297.746 934.336 297.85 934.377L299.744 935.124C300.085 935.259 300.085 935.741 299.744 935.876L297.85 936.623C297.746 936.664 297.664 936.746 297.623 936.85L296.876 938.744Z" fill="#EEEFFF"/>
<path d="M433.876 1018.74C433.741 1019.09 433.259 1019.09 433.124 1018.74L432.377 1016.85C432.336 1016.75 432.254 1016.66 432.15 1016.62L430.256 1015.88C429.915 1015.74 429.915 1015.26 430.256 1015.12L432.15 1014.38C432.254 1014.34 432.336 1014.25 432.377 1014.15L433.124 1012.26C433.259 1011.91 433.741 1011.91 433.876 1012.26L434.623 1014.15C434.664 1014.25 434.746 1014.34 434.85 1014.38L436.744 1015.12C437.085 1015.26 437.085 1015.74 436.744 1015.88L434.85 1016.62C434.746 1016.66 434.664 1016.75 434.623 1016.85L433.876 1018.74Z" fill="#EEEFFF"/>
<path d="M544.876 943.744C544.741 944.085 544.259 944.085 544.124 943.744L543.377 941.85C543.336 941.746 543.254 941.664 543.15 941.623L541.256 940.876C540.915 940.741 540.915 940.259 541.256 940.124L543.15 939.377C543.254 939.336 543.336 939.254 543.377 939.15L544.124 937.256C544.259 936.915 544.741 936.915 544.876 937.256L545.623 939.15C545.664 939.254 545.746 939.336 545.85 939.377L547.744 940.124C548.085 940.259 548.085 940.741 547.744 940.876L545.85 941.623C545.746 941.664 545.664 941.746 545.623 941.85L544.876 943.744Z" fill="#EEEFFF"/>
<path d="M510.876 908.744C510.741 909.085 510.259 909.085 510.124 908.744L509.377 906.85C509.336 906.746 509.254 906.664 509.15 906.623L507.256 905.876C506.915 905.741 506.915 905.259 507.256 905.124L509.15 904.377C509.254 904.336 509.336 904.254 509.377 904.15L510.124 902.256C510.259 901.915 510.741 901.915 510.876 902.256L511.623 904.15C511.664 904.254 511.746 904.336 511.85 904.377L513.744 905.124C514.085 905.259 514.085 905.741 513.744 905.876L511.85 906.623C511.746 906.664 511.664 906.746 511.623 906.85L510.876 908.744Z" fill="#EEEFFF"/>
<path d="M603.876 360.744C603.741 361.085 603.259 361.085 603.124 360.744L602.377 358.85C602.336 358.746 602.254 358.664 602.15 358.623L600.256 357.876C599.915 357.741 599.915 357.259 600.256 357.124L602.15 356.377C602.254 356.336 602.336 356.254 602.377 356.15L603.124 354.256C603.259 353.915 603.741 353.915 603.876 354.256L604.623 356.15C604.664 356.254 604.746 356.336 604.85 356.377L606.744 357.124C607.085 357.259 607.085 357.741 606.744 357.876L604.85 358.623C604.746 358.664 604.664 358.746 604.623 358.85L603.876 360.744Z" fill="#EEEFFF"/>
<path d="M573.876 326.744C573.741 327.085 573.259 327.085 573.124 326.744L572.377 324.85C572.336 324.746 572.254 324.664 572.15 324.623L570.256 323.876C569.915 323.741 569.915 323.259 570.256 323.124L572.15 322.377C572.254 322.336 572.336 322.254 572.377 322.15L573.124 320.256C573.259 319.915 573.741 319.915 573.876 320.256L574.623 322.15C574.664 322.254 574.746 322.336 574.85 322.377L576.744 323.124C577.085 323.259 577.085 323.741 576.744 323.876L574.85 324.623C574.746 324.664 574.664 324.746 574.623 324.85L573.876 326.744Z" fill="#EEEFFF"/>
<path d="M610.876 53.7444C610.741 54.0852 610.259 54.0852 610.124 53.7444L609.377 51.8502C609.336 51.7461 609.254 51.6637 609.15 51.6227L607.256 50.8756C606.915 50.7412 606.915 50.2588 607.256 50.1244L609.15 49.3773C609.254 49.3363 609.336 49.2539 609.377 49.1498L610.124 47.2556C610.259 46.9148 610.741 46.9148 610.876 47.2556L611.623 49.1498C611.664 49.2539 611.746 49.3363 611.85 49.3773L613.744 50.1244C614.085 50.2588 614.085 50.7412 613.744 50.8756L611.85 51.6227C611.746 51.6637 611.664 51.7461 611.623 51.8502L610.876 53.7444Z" fill="#EEEFFF"/>
<path d="M278.876 18.7444C278.741 19.0852 278.259 19.0852 278.124 18.7444L277.377 16.8502C277.336 16.7461 277.254 16.6637 277.15 16.6227L275.256 15.8756C274.915 15.7412 274.915 15.2588 275.256 15.1244L277.15 14.3773C277.254 14.3363 277.336 14.2539 277.377 14.1498L278.124 12.2556C278.259 11.9148 278.741 11.9148 278.876 12.2556L279.623 14.1498C279.664 14.2539 279.746 14.3363 279.85 14.3773L281.744 15.1244C282.085 15.2588 282.085 15.7412 281.744 15.8756L279.85 16.6227C279.746 16.6637 279.664 16.7461 279.623 16.8502L278.876 18.7444Z" fill="#EEEFFF"/>
<path d="M231.876 46.7444C231.741 47.0852 231.259 47.0852 231.124 46.7444L230.377 44.8502C230.336 44.7461 230.254 44.6637 230.15 44.6227L228.256 43.8756C227.915 43.7412 227.915 43.2588 228.256 43.1244L230.15 42.3773C230.254 42.3363 230.336 42.2539 230.377 42.1498L231.124 40.2556C231.259 39.9148 231.741 39.9148 231.876 40.2556L232.623 42.1498C232.664 42.2539 232.746 42.3363 232.85 42.3773L234.744 43.1244C235.085 43.2588 235.085 43.7412 234.744 43.8756L232.85 44.6227C232.746 44.6637 232.664 44.7461 232.623 44.8502L231.876 46.7444Z" fill="#EEEFFF"/>
<path d="M237.876 18.7444C237.741 19.0852 237.259 19.0852 237.124 18.7444L236.377 16.8502C236.336 16.7461 236.254 16.6637 236.15 16.6227L234.256 15.8756C233.915 15.7412 233.915 15.2588 234.256 15.1244L236.15 14.3773C236.254 14.3363 236.336 14.2539 236.377 14.1498L237.124 12.2556C237.259 11.9148 237.741 11.9148 237.876 12.2556L238.623 14.1498C238.664 14.2539 238.746 14.3363 238.85 14.3773L240.744 15.1244C241.085 15.2588 241.085 15.7412 240.744 15.8756L238.85 16.6227C238.746 16.6637 238.664 16.7461 238.623 16.8502L237.876 18.7444Z" fill="#EEEFFF"/>
<path d="M323.876 68.7444C323.741 69.0852 323.259 69.0852 323.124 68.7444L322.377 66.8502C322.336 66.7461 322.254 66.6637 322.15 66.6227L320.256 65.8756C319.915 65.7412 319.915 65.2588 320.256 65.1244L322.15 64.3773C322.254 64.3363 322.336 64.2539 322.377 64.1498L323.124 62.2556C323.259 61.9148 323.741 61.9148 323.876 62.2556L324.623 64.1498C324.664 64.2539 324.746 64.3363 324.85 64.3773L326.744 65.1244C327.085 65.2588 327.085 65.7412 326.744 65.8756L324.85 66.6227C324.746 66.6637 324.664 66.7461 324.623 66.8502L323.876 68.7444Z" fill="#EEEFFF"/>
<path d="M15.8756 8.74436C15.7412 9.08521 15.2588 9.08521 15.1244 8.74436L14.3773 6.85017C14.3363 6.7461 14.2539 6.66373 14.1498 6.62269L12.2556 5.87563C11.9148 5.7412 11.9148 5.2588 12.2556 5.12437L14.1498 4.37731C14.2539 4.33627 14.3363 4.25389 14.3773 4.14983L15.1244 2.25564C15.2588 1.91479 15.7412 1.91479 15.8756 2.25564L16.6227 4.14983C16.6637 4.25389 16.7461 4.33627 16.8502 4.37731L18.7444 5.12437C19.0852 5.2588 19.0852 5.7412 18.7444 5.87563L16.8502 6.62269C16.7461 6.66373 16.6637 6.7461 16.6227 6.85017L15.8756 8.74436Z" fill="#EEEFFF"/>
<path d="M0.87563 63.7444C0.741198 64.0852 0.258801 64.0852 0.124369 63.7444L-0.622687 61.8502C-0.66373 61.7461 -0.746106 61.6637 -0.850171 61.6227L-2.74436 60.8756C-3.08521 60.7412 -3.08521 60.2588 -2.74436 60.1244L-0.850171 59.3773C-0.746105 59.3363 -0.66373 59.2539 -0.622687 59.1498L0.124369 57.2556C0.258801 56.9148 0.741198 56.9148 0.87563 57.2556L1.62269 59.1498C1.66373 59.2539 1.7461 59.3363 1.85017 59.3773L3.74436 60.1244C4.08521 60.2588 4.08521 60.7412 3.74436 60.8756L1.85017 61.6227C1.7461 61.6637 1.66373 61.7461 1.62269 61.8502L0.87563 63.7444Z" fill="#EEEFFF"/>
<path d="M0.87563 503.744C0.741198 504.085 0.258801 504.085 0.124369 503.744L-0.622687 501.85C-0.66373 501.746 -0.746106 501.664 -0.850171 501.623L-2.74436 500.876C-3.08521 500.741 -3.08521 500.259 -2.74436 500.124L-0.850171 499.377C-0.746105 499.336 -0.66373 499.254 -0.622687 499.15L0.124369 497.256C0.258801 496.915 0.741198 496.915 0.87563 497.256L1.62269 499.15C1.66373 499.254 1.7461 499.336 1.85017 499.377L3.74436 500.124C4.08521 500.259 4.08521 500.741 3.74436 500.876L1.85017 501.623C1.7461 501.664 1.66373 501.746 1.62269 501.85L0.87563 503.744Z" fill="#EEEFFF"/>
<path d="M474.876 324.744C474.741 325.085 474.259 325.085 474.124 324.744L473.377 322.85C473.336 322.746 473.254 322.664 473.15 322.623L471.256 321.876C470.915 321.741 470.915 321.259 471.256 321.124L473.15 320.377C473.254 320.336 473.336 320.254 473.377 320.15L474.124 318.256C474.259 317.915 474.741 317.915 474.876 318.256L475.623 320.15C475.664 320.254 475.746 320.336 475.85 320.377L477.744 321.124C478.085 321.259 478.085 321.741 477.744 321.876L475.85 322.623C475.746 322.664 475.664 322.746 475.623 322.85L474.876 324.744Z" fill="#EEEFFF"/>
<path d="M707.876 524.744C707.741 525.085 707.259 525.085 707.124 524.744L706.377 522.85C706.336 522.746 706.254 522.664 706.15 522.623L704.256 521.876C703.915 521.741 703.915 521.259 704.256 521.124L706.15 520.377C706.254 520.336 706.336 520.254 706.377 520.15L707.124 518.256C707.259 517.915 707.741 517.915 707.876 518.256L708.623 520.15C708.664 520.254 708.746 520.336 708.85 520.377L710.744 521.124C711.085 521.259 711.085 521.741 710.744 521.876L708.85 522.623C708.746 522.664 708.664 522.746 708.623 522.85L707.876 524.744Z" fill="#EEEFFF"/>
<path d="M1062.88 493.744C1062.74 494.085 1062.26 494.085 1062.12 493.744L1061.38 491.85C1061.34 491.746 1061.25 491.664 1061.15 491.623L1059.26 490.876C1058.91 490.741 1058.91 490.259 1059.26 490.124L1061.15 489.377C1061.25 489.336 1061.34 489.254 1061.38 489.15L1062.12 487.256C1062.26 486.915 1062.74 486.915 1062.88 487.256L1063.62 489.15C1063.66 489.254 1063.75 489.336 1063.85 489.377L1065.74 490.124C1066.09 490.259 1066.09 490.741 1065.74 490.876L1063.85 491.623C1063.75 491.664 1063.66 491.746 1063.62 491.85L1062.88 493.744Z" fill="#EEEFFF"/>
<path d="M1128.88 448.744C1128.74 449.085 1128.26 449.085 1128.12 448.744L1127.38 446.85C1127.34 446.746 1127.25 446.664 1127.15 446.623L1125.26 445.876C1124.91 445.741 1124.91 445.259 1125.26 445.124L1127.15 444.377C1127.25 444.336 1127.34 444.254 1127.38 444.15L1128.12 442.256C1128.26 441.915 1128.74 441.915 1128.88 442.256L1129.62 444.15C1129.66 444.254 1129.75 444.336 1129.85 444.377L1131.74 445.124C1132.09 445.259 1132.09 445.741 1131.74 445.876L1129.85 446.623C1129.75 446.664 1129.66 446.746 1129.62 446.85L1128.88 448.744Z" fill="#EEEFFF"/>
<path d="M1357.88 483.744C1357.74 484.085 1357.26 484.085 1357.12 483.744L1356.38 481.85C1356.34 481.746 1356.25 481.664 1356.15 481.623L1354.26 480.876C1353.91 480.741 1353.91 480.259 1354.26 480.124L1356.15 479.377C1356.25 479.336 1356.34 479.254 1356.38 479.15L1357.12 477.256C1357.26 476.915 1357.74 476.915 1357.88 477.256L1358.62 479.15C1358.66 479.254 1358.75 479.336 1358.85 479.377L1360.74 480.124C1361.09 480.259 1361.09 480.741 1360.74 480.876L1358.85 481.623C1358.75 481.664 1358.66 481.746 1358.62 481.85L1357.88 483.744Z" fill="#EEEFFF"/>
<path d="M942.876 24.7444C942.741 25.0852 942.259 25.0852 942.124 24.7444L941.377 22.8502C941.336 22.7461 941.254 22.6637 941.15 22.6227L939.256 21.8756C938.915 21.7412 938.915 21.2588 939.256 21.1244L941.15 20.3773C941.254 20.3363 941.336 20.2539 941.377 20.1498L942.124 18.2556C942.259 17.9148 942.741 17.9148 942.876 18.2556L943.623 20.1498C943.664 20.2539 943.746 20.3363 943.85 20.3773L945.744 21.1244C946.085 21.2588 946.085 21.7412 945.744 21.8756L943.85 22.6227C943.746 22.6637 943.664 22.7461 943.623 22.8502L942.876 24.7444Z" fill="#EEEFFF"/>
<path d="M920.876 53.7444C920.741 54.0852 920.259 54.0852 920.124 53.7444L919.377 51.8502C919.336 51.7461 919.254 51.6637 919.15 51.6227L917.256 50.8756C916.915 50.7412 916.915 50.2588 917.256 50.1244L919.15 49.3773C919.254 49.3363 919.336 49.2539 919.377 49.1498L920.124 47.2556C920.259 46.9148 920.741 46.9148 920.876 47.2556L921.623 49.1498C921.664 49.2539 921.746 49.3363 921.85 49.3773L923.744 50.1244C924.085 50.2588 924.085 50.7412 923.744 50.8756L921.85 51.6227C921.746 51.6637 921.664 51.7461 921.623 51.8502L920.876 53.7444Z" fill="#EEEFFF"/>
<path d="M768.876 27.7444C768.741 28.0852 768.259 28.0852 768.124 27.7444L767.377 25.8502C767.336 25.7461 767.254 25.6637 767.15 25.6227L765.256 24.8756C764.915 24.7412 764.915 24.2588 765.256 24.1244L767.15 23.3773C767.254 23.3363 767.336 23.2539 767.377 23.1498L768.124 21.2556C768.259 20.9148 768.741 20.9148 768.876 21.2556L769.623 23.1498C769.664 23.2539 769.746 23.3363 769.85 23.3773L771.744 24.1244C772.085 24.2588 772.085 24.7412 771.744 24.8756L769.85 25.6227C769.746 25.6637 769.664 25.7461 769.623 25.8502L768.876 27.7444Z" fill="#EEEFFF"/>
<path d="M812.876 141.744C812.741 142.085 812.259 142.085 812.124 141.744L811.377 139.85C811.336 139.746 811.254 139.664 811.15 139.623L809.256 138.876C808.915 138.741 808.915 138.259 809.256 138.124L811.15 137.377C811.254 137.336 811.336 137.254 811.377 137.15L812.124 135.256C812.259 134.915 812.741 134.915 812.876 135.256L813.623 137.15C813.664 137.254 813.746 137.336 813.85 137.377L815.744 138.124C816.085 138.259 816.085 138.741 815.744 138.876L813.85 139.623C813.746 139.664 813.664 139.746 813.623 139.85L812.876 141.744Z" fill="#EEEFFF"/>
<path d="M646.876 216.744C646.741 217.085 646.259 217.085 646.124 216.744L645.377 214.85C645.336 214.746 645.254 214.664 645.15 214.623L643.256 213.876C642.915 213.741 642.915 213.259 643.256 213.124L645.15 212.377C645.254 212.336 645.336 212.254 645.377 212.15L646.124 210.256C646.259 209.915 646.741 209.915 646.876 210.256L647.623 212.15C647.664 212.254 647.746 212.336 647.85 212.377L649.744 213.124C650.085 213.259 650.085 213.741 649.744 213.876L647.85 214.623C647.746 214.664 647.664 214.746 647.623 214.85L646.876 216.744Z" fill="#EEEFFF"/>
<path d="M679.876 282.744C679.741 283.085 679.259 283.085 679.124 282.744L678.377 280.85C678.336 280.746 678.254 280.664 678.15 280.623L676.256 279.876C675.915 279.741 675.915 279.259 676.256 279.124L678.15 278.377C678.254 278.336 678.336 278.254 678.377 278.15L679.124 276.256C679.259 275.915 679.741 275.915 679.876 276.256L680.623 278.15C680.664 278.254 680.746 278.336 680.85 278.377L682.744 279.124C683.085 279.259 683.085 279.741 682.744 279.876L680.85 280.623C680.746 280.664 680.664 280.746 680.623 280.85L679.876 282.744Z" fill="#EEEFFF"/>
<path d="M1183.88 256.744C1183.74 257.085 1183.26 257.085 1183.12 256.744L1182.38 254.85C1182.34 254.746 1182.25 254.664 1182.15 254.623L1180.26 253.876C1179.91 253.741 1179.91 253.259 1180.26 253.124L1182.15 252.377C1182.25 252.336 1182.34 252.254 1182.38 252.15L1183.12 250.256C1183.26 249.915 1183.74 249.915 1183.88 250.256L1184.62 252.15C1184.66 252.254 1184.75 252.336 1184.85 252.377L1186.74 253.124C1187.09 253.259 1187.09 253.741 1186.74 253.876L1184.85 254.623C1184.75 254.664 1184.66 254.746 1184.62 254.85L1183.88 256.744Z" fill="#EEEFFF"/>
<path d="M1201.88 331.744C1201.74 332.085 1201.26 332.085 1201.12 331.744L1200.38 329.85C1200.34 329.746 1200.25 329.664 1200.15 329.623L1198.26 328.876C1197.91 328.741 1197.91 328.259 1198.26 328.124L1200.15 327.377C1200.25 327.336 1200.34 327.254 1200.38 327.15L1201.12 325.256C1201.26 324.915 1201.74 324.915 1201.88 325.256L1202.62 327.15C1202.66 327.254 1202.75 327.336 1202.85 327.377L1204.74 328.124C1205.09 328.259 1205.09 328.741 1204.74 328.876L1202.85 329.623C1202.75 329.664 1202.66 329.746 1202.62 329.85L1201.88 331.744Z" fill="#EEEFFF"/>
<path d="M991.876 286.744C991.741 287.085 991.259 287.085 991.124 286.744L990.377 284.85C990.336 284.746 990.254 284.664 990.15 284.623L988.256 283.876C987.915 283.741 987.915 283.259 988.256 283.124L990.15 282.377C990.254 282.336 990.336 282.254 990.377 282.15L991.124 280.256C991.259 279.915 991.741 279.915 991.876 280.256L992.623 282.15C992.664 282.254 992.746 282.336 992.85 282.377L994.744 283.124C995.085 283.259 995.085 283.741 994.744 283.876L992.85 284.623C992.746 284.664 992.664 284.746 992.623 284.85L991.876 286.744Z" fill="#EEEFFF"/>
<path d="M828.876 108.744C828.741 109.085 828.259 109.085 828.124 108.744L827.377 106.85C827.336 106.746 827.254 106.664 827.15 106.623L825.256 105.876C824.915 105.741 824.915 105.259 825.256 105.124L827.15 104.377C827.254 104.336 827.336 104.254 827.377 104.15L828.124 102.256C828.259 101.915 828.741 101.915 828.876 102.256L829.623 104.15C829.664 104.254 829.746 104.336 829.85 104.377L831.744 105.124C832.085 105.259 832.085 105.741 831.744 105.876L829.85 106.623C829.746 106.664 829.664 106.746 829.623 106.85L828.876 108.744Z" fill="#EEEFFF"/>
<path d="M889.876 197.744C889.741 198.085 889.259 198.085 889.124 197.744L888.377 195.85C888.336 195.746 888.254 195.664 888.15 195.623L886.256 194.876C885.915 194.741 885.915 194.259 886.256 194.124L888.15 193.377C888.254 193.336 888.336 193.254 888.377 193.15L889.124 191.256C889.259 190.915 889.741 190.915 889.876 191.256L890.623 193.15C890.664 193.254 890.746 193.336 890.85 193.377L892.744 194.124C893.085 194.259 893.085 194.741 892.744 194.876L890.85 195.623C890.746 195.664 890.664 195.746 890.623 195.85L889.876 197.744Z" fill="#EEEFFF"/>
<path d="M704.876 418.744C704.741 419.085 704.259 419.085 704.124 418.744L703.377 416.85C703.336 416.746 703.254 416.664 703.15 416.623L701.256 415.876C700.915 415.741 700.915 415.259 701.256 415.124L703.15 414.377C703.254 414.336 703.336 414.254 703.377 414.15L704.124 412.256C704.259 411.915 704.741 411.915 704.876 412.256L705.623 414.15C705.664 414.254 705.746 414.336 705.85 414.377L707.744 415.124C708.085 415.259 708.085 415.741 707.744 415.876L705.85 416.623C705.746 416.664 705.664 416.746 705.623 416.85L704.876 418.744Z" fill="#EEEFFF"/>
<path d="M1229.88 344.744C1229.74 345.085 1229.26 345.085 1229.12 344.744L1228.38 342.85C1228.34 342.746 1228.25 342.664 1228.15 342.623L1226.26 341.876C1225.91 341.741 1225.91 341.259 1226.26 341.124L1228.15 340.377C1228.25 340.336 1228.34 340.254 1228.38 340.15L1229.12 338.256C1229.26 337.915 1229.74 337.915 1229.88 338.256L1230.62 340.15C1230.66 340.254 1230.75 340.336 1230.85 340.377L1232.74 341.124C1233.09 341.259 1233.09 341.741 1232.74 341.876L1230.85 342.623C1230.75 342.664 1230.66 342.746 1230.62 342.85L1229.88 344.744Z" fill="#EEEFFF"/>
<path d="M1142.88 519.744C1142.74 520.085 1142.26 520.085 1142.12 519.744L1141.38 517.85C1141.34 517.746 1141.25 517.664 1141.15 517.623L1139.26 516.876C1138.91 516.741 1138.91 516.259 1139.26 516.124L1141.15 515.377C1141.25 515.336 1141.34 515.254 1141.38 515.15L1142.12 513.256C1142.26 512.915 1142.74 512.915 1142.88 513.256L1143.62 515.15C1143.66 515.254 1143.75 515.336 1143.85 515.377L1145.74 516.124C1146.09 516.259 1146.09 516.741 1145.74 516.876L1143.85 517.623C1143.75 517.664 1143.66 517.746 1143.62 517.85L1142.88 519.744Z" fill="#EEEFFF"/>
<path d="M1323.88 612.744C1323.74 613.085 1323.26 613.085 1323.12 612.744L1322.38 610.85C1322.34 610.746 1322.25 610.664 1322.15 610.623L1320.26 609.876C1319.91 609.741 1319.91 609.259 1320.26 609.124L1322.15 608.377C1322.25 608.336 1322.34 608.254 1322.38 608.15L1323.12 606.256C1323.26 605.915 1323.74 605.915 1323.88 606.256L1324.62 608.15C1324.66 608.254 1324.75 608.336 1324.85 608.377L1326.74 609.124C1327.09 609.259 1327.09 609.741 1326.74 609.876L1324.85 610.623C1324.75 610.664 1324.66 610.746 1324.62 610.85L1323.88 612.744Z" fill="#EEEFFF"/>
<path d="M1305.88 600.744C1305.74 601.085 1305.26 601.085 1305.12 600.744L1304.38 598.85C1304.34 598.746 1304.25 598.664 1304.15 598.623L1302.26 597.876C1301.91 597.741 1301.91 597.259 1302.26 597.124L1304.15 596.377C1304.25 596.336 1304.34 596.254 1304.38 596.15L1305.12 594.256C1305.26 593.915 1305.74 593.915 1305.88 594.256L1306.62 596.15C1306.66 596.254 1306.75 596.336 1306.85 596.377L1308.74 597.124C1309.09 597.259 1309.09 597.741 1308.74 597.876L1306.85 598.623C1306.75 598.664 1306.66 598.746 1306.62 598.85L1305.88 600.744Z" fill="#EEEFFF"/>
<path d="M1435.88 327.744C1435.74 328.085 1435.26 328.085 1435.12 327.744L1434.38 325.85C1434.34 325.746 1434.25 325.664 1434.15 325.623L1432.26 324.876C1431.91 324.741 1431.91 324.259 1432.26 324.124L1434.15 323.377C1434.25 323.336 1434.34 323.254 1434.38 323.15L1435.12 321.256C1435.26 320.915 1435.74 320.915 1435.88 321.256L1436.62 323.15C1436.66 323.254 1436.75 323.336 1436.85 323.377L1438.74 324.124C1439.09 324.259 1439.09 324.741 1438.74 324.876L1436.85 325.623C1436.75 325.664 1436.66 325.746 1436.62 325.85L1435.88 327.744Z" fill="#EEEFFF"/>
<path d="M1077.88 166.744C1077.74 167.085 1077.26 167.085 1077.12 166.744L1076.38 164.85C1076.34 164.746 1076.25 164.664 1076.15 164.623L1074.26 163.876C1073.91 163.741 1073.91 163.259 1074.26 163.124L1076.15 162.377C1076.25 162.336 1076.34 162.254 1076.38 162.15L1077.12 160.256C1077.26 159.915 1077.74 159.915 1077.88 160.256L1078.62 162.15C1078.66 162.254 1078.75 162.336 1078.85 162.377L1080.74 163.124C1081.09 163.259 1081.09 163.741 1080.74 163.876L1078.85 164.623C1078.75 164.664 1078.66 164.746 1078.62 164.85L1077.88 166.744Z" fill="#EEEFFF"/>
<path d="M1265.88 46.7444C1265.74 47.0852 1265.26 47.0852 1265.12 46.7444L1264.38 44.8502C1264.34 44.7461 1264.25 44.6637 1264.15 44.6227L1262.26 43.8756C1261.91 43.7412 1261.91 43.2588 1262.26 43.1244L1264.15 42.3773C1264.25 42.3363 1264.34 42.2539 1264.38 42.1498L1265.12 40.2556C1265.26 39.9148 1265.74 39.9148 1265.88 40.2556L1266.62 42.1498C1266.66 42.2539 1266.75 42.3363 1266.85 42.3773L1268.74 43.1244C1269.09 43.2588 1269.09 43.7412 1268.74 43.8756L1266.85 44.6227C1266.75 44.6637 1266.66 44.7461 1266.62 44.8502L1265.88 46.7444Z" fill="#EEEFFF"/>
<path d="M1280.88 21.7444C1280.74 22.0852 1280.26 22.0852 1280.12 21.7444L1279.38 19.8502C1279.34 19.7461 1279.25 19.6637 1279.15 19.6227L1277.26 18.8756C1276.91 18.7412 1276.91 18.2588 1277.26 18.1244L1279.15 17.3773C1279.25 17.3363 1279.34 17.2539 1279.38 17.1498L1280.12 15.2556C1280.26 14.9148 1280.74 14.9148 1280.88 15.2556L1281.62 17.1498C1281.66 17.2539 1281.75 17.3363 1281.85 17.3773L1283.74 18.1244C1284.09 18.2588 1284.09 18.7412 1283.74 18.8756L1281.85 19.6227C1281.75 19.6637 1281.66 19.7461 1281.62 19.8502L1280.88 21.7444Z" fill="#EEEFFF"/>
<path d="M1293.88 71.7444C1293.74 72.0852 1293.26 72.0852 1293.12 71.7444L1292.38 69.8502C1292.34 69.7461 1292.25 69.6637 1292.15 69.6227L1290.26 68.8756C1289.91 68.7412 1289.91 68.2588 1290.26 68.1244L1292.15 67.3773C1292.25 67.3363 1292.34 67.2539 1292.38 67.1498L1293.12 65.2556C1293.26 64.9148 1293.74 64.9148 1293.88 65.2556L1294.62 67.1498C1294.66 67.2539 1294.75 67.3363 1294.85 67.3773L1296.74 68.1244C1297.09 68.2588 1297.09 68.7412 1296.74 68.8756L1294.85 69.6227C1294.75 69.6637 1294.66 69.7461 1294.62 69.8502L1293.88 71.7444Z" fill="#EEEFFF"/>
<path d="M1170.88 94.7444C1170.74 95.0852 1170.26 95.0852 1170.12 94.7444L1169.38 92.8502C1169.34 92.7461 1169.25 92.6637 1169.15 92.6227L1167.26 91.8756C1166.91 91.7412 1166.91 91.2588 1167.26 91.1244L1169.15 90.3773C1169.25 90.3363 1169.34 90.2539 1169.38 90.1498L1170.12 88.2556C1170.26 87.9148 1170.74 87.9148 1170.88 88.2556L1171.62 90.1498C1171.66 90.2539 1171.75 90.3363 1171.85 90.3773L1173.74 91.1244C1174.09 91.2588 1174.09 91.7412 1173.74 91.8756L1171.85 92.6227C1171.75 92.6637 1171.66 92.7461 1171.62 92.8502L1170.88 94.7444Z" fill="#EEEFFF"/>
<path d="M1149.88 83.7444C1149.74 84.0852 1149.26 84.0852 1149.12 83.7444L1148.38 81.8502C1148.34 81.7461 1148.25 81.6637 1148.15 81.6227L1146.26 80.8756C1145.91 80.7412 1145.91 80.2588 1146.26 80.1244L1148.15 79.3773C1148.25 79.3363 1148.34 79.2539 1148.38 79.1498L1149.12 77.2556C1149.26 76.9148 1149.74 76.9148 1149.88 77.2556L1150.62 79.1498C1150.66 79.2539 1150.75 79.3363 1150.85 79.3773L1152.74 80.1244C1153.09 80.2588 1153.09 80.7412 1152.74 80.8756L1150.85 81.6227C1150.75 81.6637 1150.66 81.7461 1150.62 81.8502L1149.88 83.7444Z" fill="#EEEFFF"/>
<path d="M1300.88 151.744C1300.74 152.085 1300.26 152.085 1300.12 151.744L1299.38 149.85C1299.34 149.746 1299.25 149.664 1299.15 149.623L1297.26 148.876C1296.91 148.741 1296.91 148.259 1297.26 148.124L1299.15 147.377C1299.25 147.336 1299.34 147.254 1299.38 147.15L1300.12 145.256C1300.26 144.915 1300.74 144.915 1300.88 145.256L1301.62 147.15C1301.66 147.254 1301.75 147.336 1301.85 147.377L1303.74 148.124C1304.09 148.259 1304.09 148.741 1303.74 148.876L1301.85 149.623C1301.75 149.664 1301.66 149.746 1301.62 149.85L1300.88 151.744Z" fill="#EEEFFF"/>
</g>
</svg>
