<?xml version="1.0" encoding="UTF-8"?>
<svg version="1.1" xmlns="http://www.w3.org/2000/svg" width="638" height="167">
<path d="M0 0 C21.45 0 42.9 0 65 0 C64.34 3.96 63.68 7.92 63 12 C37.755 12.495 37.755 12.495 12 13 C36.75 13.495 36.75 13.495 62 14 C60 27 60 27 57 39 C35.88 39 14.76 39 -7 39 C-6.34 35.04 -5.68 31.08 -5 27 C11.83 27 28.66 27 46 27 C46 26.34 46 25.68 46 25 C29.5 25 13 25 -4 25 C-3.06803236 16.61229122 -1.55527101 8.29477874 0 0 Z " fill="#F0F0F0" transform="translate(573,78)"/>
<path d="M0 0 C21.12 0 42.24 0 64 0 C63.34 3.96 62.68 7.92 62 12 C45.17 12 28.34 12 11 12 C11 12.66 11 13.32 11 14 C27.5 14 44 14 61 14 C60 24 60 24 59 25 C57.43551617 25.12263388 55.86567228 25.17779522 54.29663086 25.20532227 C53.28161499 25.22550415 52.26659912 25.24568604 51.2208252 25.26647949 C50.14635132 25.28295532 49.07187744 25.29943115 47.96484375 25.31640625 C46.49198914 25.34438293 46.49198914 25.34438293 44.98937988 25.3729248 C41.3055154 25.4414572 37.62149617 25.50145568 33.9375 25.5625 C25.708125 25.706875 17.47875 25.85125 9 26 C33.75 26.495 33.75 26.495 59 27 C58.34 30.96 57.68 34.92 57 39 C35.55 39 14.1 39 -8 39 C-6.865625 32.93625 -5.73125 26.8725 -4.5625 20.625 C-4.20615479 18.71154785 -3.84980957 16.7980957 -3.48266602 14.82666016 C-3.19831788 13.31408276 -2.91374663 11.80154728 -2.62890625 10.2890625 C-2.48287964 9.50039795 -2.33685303 8.7117334 -2.18640137 7.89916992 C-1.1140718 2.2281436 -1.1140718 2.2281436 0 0 Z " fill="#F0F0F0" transform="translate(419,78)"/>
<path d="M0 0 C21.45 0 42.9 0 65 0 C64.34 3.63 63.68 7.26 63 11 C46.17 11 29.34 11 12 11 C12 11.66 12 12.32 12 13 C36.75 13.495 36.75 13.495 62 14 C58.54545455 36.45454545 58.54545455 36.45454545 57 38 C55.0056827 38.09405142 53.00800457 38.11743249 51.01147461 38.11352539 C49.73022202 38.11344986 48.44896942 38.11337433 47.12889099 38.11329651 C45.72004152 38.10818909 44.31119244 38.10297309 42.90234375 38.09765625 C41.46887766 38.09579202 40.03541093 38.09436814 38.60194397 38.09336853 C34.82240043 38.08954372 31.0428951 38.07971377 27.2633667 38.06866455 C23.40930702 38.05844963 19.55524118 38.05387074 15.70117188 38.04882812 C8.13409512 38.03809145 0.56705777 38.02049497 -7 38 C-6.34 34.04 -5.68 30.08 -5 26 C11.83 26 28.66 26 46 26 C46 25.34 46 24.68 46 24 C29.5 24 13 24 -4 24 C-2.76676301 15.98395956 -1.45082352 7.97952937 0 0 Z " fill="#F1F1F1" transform="translate(170,28)"/>
<path d="M0 0 C21.12 0 42.24 0 64 0 C63 10 63 10 62 11 C60.43551617 11.12263388 58.86567228 11.17779522 57.29663086 11.20532227 C56.29566879 11.22526749 55.29470673 11.24521271 54.26341248 11.26576233 C53.1748848 11.28247482 52.08635712 11.29918732 50.96484375 11.31640625 C49.85645645 11.33718735 48.74806915 11.35796844 47.60609436 11.37937927 C44.04996192 11.44499623 40.49375297 11.50381596 36.9375 11.5625 C34.53319507 11.60567368 32.12889801 11.64928758 29.72460938 11.69335938 C23.81648815 11.80068992 17.90829009 11.90243331 12 12 C11.67 12.66 11.34 13.32 11 14 C27.83 14 44.66 14 62 14 C61.34 17.3 60.68 20.6 60 24 C43.17 24 26.34 24 9 24 C9 24.66 9 25.32 9 26 C25.5 26 42 26 59 26 C58 36 58 36 57 38 C35.88 38 14.76 38 -7 38 C-5.57766557 25.19899013 -2.60951683 12.6126647 0 0 Z " fill="#F1F1F1" transform="translate(93,28)"/>
<path d="M0 0 C1.70209877 0.00333092 1.70209877 0.00333092 3.43858337 0.00672913 C4.71983597 0.00680466 6.00108856 0.00688019 7.32116699 0.00695801 C8.73001646 0.01206542 10.13886554 0.01728143 11.54771423 0.02259827 C12.98118033 0.02446249 14.41464706 0.02588637 15.84811401 0.02688599 C19.62765755 0.03071079 23.40716288 0.04054075 27.18669128 0.05158997 C31.04075097 0.06180489 34.8948168 0.06638378 38.74888611 0.07142639 C46.31596085 0.08216306 53.88300407 0.09923903 61.45005798 0.12025452 C60.47528535 5.35372413 59.49660601 10.58644204 58.51426697 15.8184967 C58.18050338 17.59921885 57.84781636 19.38014313 57.51622009 21.16127014 C57.03995287 23.71844779 56.55984388 26.27487826 56.07896423 28.83119202 C55.93100906 29.63019928 55.78305389 30.42920654 55.63061523 31.25242615 C54.56392969 36.8925111 54.56392969 36.8925111 53.45005798 39.12025452 C32.33005798 39.12025452 11.21005798 39.12025452 -10.54994202 39.12025452 C-9.19151251 30.29046271 -7.74683676 21.6097999 -5.98744202 12.87025452 C-5.7663678 11.74490295 -5.54529358 10.61955139 -5.31752014 9.46009827 C-5.1041803 8.39404358 -4.89084045 7.32798889 -4.67103577 6.22962952 C-4.47952942 5.27024475 -4.28802307 4.31085999 -4.0907135 3.32240295 C-3.32864425 0.21907805 -3.25236723 0.15338068 0 0 Z M7.45005798 15.12025452 C7.12005798 18.09025452 6.79005798 21.06025452 6.45005798 24.12025452 C18.66005798 24.12025452 30.87005798 24.12025452 43.45005798 24.12025452 C43.78005798 21.15025452 44.11005798 18.18025452 44.45005798 15.12025452 C32.24005798 15.12025452 20.03005798 15.12025452 7.45005798 15.12025452 Z " fill="#F0F0F0" transform="translate(163.54994201660156,77.87974548339844)"/>
<path d="M0 0 C7.36478777 -0.10193078 14.72939168 -0.17168759 22.09472656 -0.21972656 C24.59707436 -0.23976603 27.09937578 -0.26700522 29.6015625 -0.30175781 C33.21105437 -0.3506124 36.81992379 -0.37304645 40.4296875 -0.390625 C41.53738495 -0.41127014 42.6450824 -0.43191528 43.78634644 -0.45318604 C51.00371997 -0.45524248 56.51999297 0.80276301 63 4 C61.72910419 15.43806226 59.25699293 26.71503534 57 38 C35.55 38 14.1 38 -8 38 C-6.865625 32.10125 -5.73125 26.2025 -4.5625 20.125 C-4.20615479 18.26375488 -3.84980957 16.40250977 -3.48266602 14.48486328 C-3.19831342 13.01330112 -2.91374188 11.54178124 -2.62890625 10.0703125 C-2.48287964 9.30323975 -2.33685303 8.53616699 -2.18640137 7.74584961 C-1.1140718 2.2281436 -1.1140718 2.2281436 0 0 Z M10 15 C9.67 17.64 9.34 20.28 9 23 C21.21 23 33.42 23 46 23 C46.33 20.36 46.66 17.72 47 15 C34.79 15 22.58 15 10 15 Z " fill="#F1F1F1" transform="translate(17,28)"/>
<path d="M0 0 C21.45 0 42.9 0 65 0 C64.34 3.63 63.68 7.26 63 11 C46.17 11 29.34 11 12 11 C11.34 15.29 10.68 19.58 10 24 C9.67 24.66 9.34 25.32 9 26 C21.21 26 33.42 26 46 26 C46 25.34 46 24.68 46 24 C38.74 24 31.48 24 24 24 C24.66 20.7 25.32 17.4 26 14 C37.88 14 49.76 14 62 14 C58.54545455 36.45454545 58.54545455 36.45454545 57 38 C55.0056827 38.09405142 53.00800457 38.11743249 51.01147461 38.11352539 C49.73022202 38.11344986 48.44896942 38.11337433 47.12889099 38.11329651 C45.72004152 38.10818909 44.31119244 38.10297309 42.90234375 38.09765625 C41.46887766 38.09579202 40.03541093 38.09436814 38.60194397 38.09336853 C34.82240043 38.08954372 31.0428951 38.07971377 27.2633667 38.06866455 C23.40930702 38.05844963 19.55524118 38.05387074 15.70117188 38.04882812 C8.13409713 38.03809146 0.56705391 38.02101549 -7 38 C-6.21009979 33.54135186 -5.41775636 29.08314113 -4.625 24.625 C-4.40328125 23.37332031 -4.1815625 22.12164062 -3.953125 20.83203125 C-3.73398437 19.60097656 -3.51484375 18.36992188 -3.2890625 17.1015625 C-3.09006348 15.98088379 -2.89106445 14.86020508 -2.68603516 13.70556641 C-1.83854718 9.12792494 -0.91300512 4.56502562 0 0 Z " fill="#F1F1F1" transform="translate(274,28)"/>
<path d="M0 0 C21.12 0 42.24 0 64 0 C63.36981917 6.30180826 62.71686793 12.00628384 61.4375 18.125 C61.29892578 18.7953125 61.16035156 19.465625 61.01757812 20.15625 C60.68293224 21.77178185 60.34215896 23.38604266 60 25 C57.03 25.33 54.06 25.66 51 26 C53.31 27.65 55.62 29.3 58 31 C57.67 33.64 57.34 36.28 57 39 C51.37782924 40.05754659 45.90511721 40.68507248 40.828125 37.74023438 C38.53658676 36.07643134 36.32348237 34.34740178 34.125 32.5625 C25.82048847 25.82916059 19.57045931 24.12152859 9 25 C8.86722656 25.92683594 8.73445313 26.85367188 8.59765625 27.80859375 C8.42105469 29.00613281 8.24445313 30.20367187 8.0625 31.4375 C7.88847656 32.63246094 7.71445312 33.82742187 7.53515625 35.05859375 C7 38 7 38 6 39 C3.81360547 39.07258946 1.62499611 39.08373783 -0.5625 39.0625 C-2.35880859 39.04896484 -2.35880859 39.04896484 -4.19140625 39.03515625 C-5.11824219 39.02355469 -6.04507812 39.01195312 -7 39 C-5.68578057 25.85780567 -2.67596251 12.93381881 0 0 Z M11 12 C11 12.66 11 13.32 11 14 C23.21 14 35.42 14 48 14 C48 13.34 48 12.68 48 12 C35.79 12 23.58 12 11 12 Z " fill="#F1F1F1" transform="translate(496,78)"/>
<path d="M0 0 C21.12 0 42.24 0 64 0 C62.875 12.375 62.875 12.375 61.4375 18.6875 C61.16808594 19.88761719 60.89867187 21.08773437 60.62109375 22.32421875 C60.41613281 23.20722656 60.21117187 24.09023437 60 25 C57.03 25.33 54.06 25.66 51 26 C53.31 27.65 55.62 29.3 58 31 C57.67 33.64 57.34 36.28 57 39 C49.98032003 40.184571 44.56185523 40.33796222 38.578125 36.36328125 C35.08480588 33.79787502 31.74037957 31.06265441 28.47363281 28.21508789 C25.00344177 25.35373255 21.17390607 25.6639536 16.875 25.4375 C15.74384766 25.37272461 15.74384766 25.37272461 14.58984375 25.30664062 C12.72678112 25.2005168 10.86341476 25.09974999 9 25 C8.86722656 25.92683594 8.73445313 26.85367188 8.59765625 27.80859375 C8.42105469 29.00613281 8.24445313 30.20367187 8.0625 31.4375 C7.88847656 32.63246094 7.71445313 33.82742187 7.53515625 35.05859375 C7 38 7 38 6 39 C3.81360547 39.07258946 1.62499611 39.08373783 -0.5625 39.0625 C-2.35880859 39.04896484 -2.35880859 39.04896484 -4.19140625 39.03515625 C-5.11824219 39.02355469 -6.04507813 39.01195312 -7 39 C-5.54144891 25.87304022 -2.59025128 12.95125642 0 0 Z M12 12 C11.67 12.66 11.34 13.32 11 14 C23.21 14 35.42 14 48 14 C48.33 13.34 48.66 12.68 49 12 C36.79 12 24.58 12 12 12 Z " fill="#F1F1F1" transform="translate(84,78)"/>
<path d="M0 0 C0.79339783 0.00424484 1.58679565 0.00848969 2.40423584 0.01286316 C4.9312982 0.02961835 7.45755483 0.06726369 9.984375 0.10546875 C11.70050929 0.12051972 13.41665612 0.13420741 15.1328125 0.14648438 C19.33364246 0.1795114 23.53387225 0.2312711 27.734375 0.29296875 C22.5188191 6.7563429 22.5188191 6.7563429 19.16015625 9.15234375 C18.17305664 9.85883057 18.17305664 9.85883057 17.16601562 10.57958984 C16.46669922 11.06250488 15.76738281 11.54541992 15.046875 12.04296875 C14.30501953 12.55811035 13.56316406 13.07325195 12.79882812 13.60400391 C-5.63573854 26.18393175 -25.91401725 36.70939972 -48.703125 36.66796875 C-49.62746338 36.66635742 -50.55180176 36.66474609 -51.50415039 36.66308594 C-58.11525406 36.54385111 -63.5225306 35.77253748 -69.265625 32.29296875 C-70.338125 31.69484375 -71.410625 31.09671875 -72.515625 30.48046875 C-79.476143 24.94369307 -83.10717317 18.97639566 -85.265625 10.29296875 C-85.53615458 7.51785885 -85.47642545 5.08607469 -85.265625 2.29296875 C-83.265625 4.29296875 -83.265625 4.29296875 -81.453125 7.66796875 C-78.25835373 13.32929136 -73.46343579 16.4631389 -67.265625 18.29296875 C-48.05141853 22.50915141 -28.42058082 12.6757985 -12.265625 3.29296875 C-11.70979736 2.76550049 -11.15396973 2.23803223 -10.58129883 1.69458008 C-7.17824233 -0.36519297 -3.85615766 -0.0778656 0 0 Z " fill="#F1F1F1" transform="translate(410.265625,130.70703125)"/>
<path d="M0 0 C2.07724384 1.69851982 3.9155256 3.46204122 5.74609375 5.421875 C6.48666016 6.20691406 6.48666016 6.20691406 7.2421875 7.0078125 C13.28959448 14.36519191 14.32154631 24.55682944 14.109375 33.76953125 C13.24717472 42.43788892 11.65545497 51.60315256 7.74609375 59.421875 C-0.83390625 59.421875 -9.41390625 59.421875 -18.25390625 59.421875 C-15.31640625 50.359375 -15.31640625 50.359375 -14.39477539 47.54663086 C-10.29661433 34.73183321 -9.73714448 23.28811106 -15.94140625 11.109375 C-21.04469594 5.17852482 -27.48275678 2.07628759 -35.25390625 1.421875 C-44.17586067 1.33451192 -51.9685366 2.9136562 -60.390625 5.6796875 C-63.25390625 6.421875 -63.25390625 6.421875 -66.25390625 5.421875 C-46.62440352 -3.13149461 -19.81351721 -13.87289593 0 0 Z " fill="#F0F0F0" transform="translate(478.25390625,6.578125)"/>
<path d="M0 0 C6.16183317 -0.83143176 11.66761034 -1.30455693 17.2265625 1.8046875 C19.93980689 3.95467609 22.55086242 6.16983794 25.14892578 8.45458984 C28.67231686 11.39617063 32.4785685 13.95226722 36.25 16.5625 C37.71428912 17.58356435 39.17788973 18.60561717 40.640625 19.62890625 C41.57696777 20.2796814 41.57696777 20.2796814 42.53222656 20.94360352 C44 22 44 22 45 23 C46.65 15.41 48.3 7.82 50 0 C54.62 0 59.24 0 64 0 C62.66732637 8.98620583 61.12227937 17.89832761 59.375 26.8125 C59.14554687 27.99392578 58.91609375 29.17535156 58.6796875 30.39257812 C58.12203522 33.2621638 57.56211508 36.13128583 57 39 C44.44475975 40.56523626 38.73516717 37.09263002 29.10253906 29.60058594 C25.50202223 26.85964442 21.74333665 24.35259372 18 21.8125 C15.69 20.224375 13.38 18.63625 11 17 C9.35 24.26 7.7 31.52 6 39 C1.38 39 -3.24 39 -8 39 C-7.2339869 34.74908146 -6.4623227 30.49931415 -5.6875 26.25 C-5.47416016 25.06277344 -5.26082031 23.87554687 -5.04101562 22.65234375 C-3.64340296 15.01762383 -1.98461563 7.50376183 0 0 Z " fill="#F0F0F0" transform="translate(238,78)"/>
<path d="M0 0 C8.13091789 -1.39166265 13.61636992 -0.84394182 20.35791016 3.78710938 C23.24310687 5.92585105 26.08391312 8.1121973 28.89404297 10.34863281 C32.19684149 12.93849245 35.63019734 15.33621897 39.0625 17.75 C40.22089866 18.57694037 41.37854099 19.40494208 42.53515625 20.234375 C43.75525391 21.10835937 43.75525391 21.10835937 45 22 C46.88178579 14.69867115 48.58409924 7.40625013 50 0 C54.62 0 59.24 0 64 0 C62.22128959 12.77437473 59.58390543 25.36839376 57 38 C48.46157629 39.0762719 42.1758266 39.14616677 35.125 33.75 C33.37791166 32.37039916 31.65273397 30.96882227 29.9375 29.54980469 C26.30089484 26.64088716 22.44513581 24.03487584 18.625 21.375 C16.10875 19.60125 13.5925 17.8275 11 16 C9.35 23.26 7.7 30.52 6 38 C1.38 38 -3.24 38 -8 38 C-7.02515646 32.90893943 -6.04647821 27.81863699 -5.06420898 22.72900391 C-4.73046555 20.99678614 -4.39777848 19.26436451 -4.06616211 17.53173828 C-3.58984262 15.04405471 -3.1097524 12.55712454 -2.62890625 10.0703125 C-2.48095108 9.29317902 -2.33299591 8.51604553 -2.18055725 7.71536255 C-1.11387171 2.22774341 -1.11387171 2.22774341 0 0 Z " fill="#F1F1F1" transform="translate(352,28)"/>
<path d="M0 0 C21.12 0 42.24 0 64 0 C63 9 63 9 62 12 C45.17 12 28.34 12 11 12 C11 12.66 11 13.32 11 14 C23.21 14 35.42 14 48 14 C47 24 47 24 46 25 C43.26298822 25.16010481 40.5483241 25.25946828 37.80859375 25.31640625 C36.57883568 25.3475779 36.57883568 25.3475779 35.32423401 25.37937927 C32.69541099 25.44496494 30.06648496 25.50380126 27.4375 25.5625 C25.65949439 25.60567667 23.88149935 25.64929067 22.10351562 25.69335938 C17.73578366 25.80065543 13.36794773 25.90189704 9 26 C8.01 30.29 7.02 34.58 6 39 C1.71 39 -2.58 39 -7 39 C-5.80422724 25.84649963 -2.76740611 12.91456185 0 0 Z " fill="#F1F1F1" transform="translate(7,78)"/>
<path d="M0 0 C21.12 0 42.24 0 64 0 C63 10 63 10 62 12 C53.75 12 45.5 12 37 12 C36.731875 13.85625 36.46375 15.7125 36.1875 17.625 C35.0855564 24.83123548 33.58158478 31.8828685 32 39 C27.38 39 22.76 39 18 39 C19.65 30.09 21.3 21.18 23 12 C14.75 12 6.5 12 -2 12 C-1 3 -1 3 0 0 Z " fill="#F1F1F1" transform="translate(315,78)"/>
<path d="M0 0 C4.62 0 9.24 0 14 0 C13.20964468 4.45856935 12.4177566 8.91685752 11.625 13.375 C11.29242188 15.25251953 11.29242188 15.25251953 10.953125 17.16796875 C9.96227033 22.73424056 8.96460968 28.29915933 7.8984375 33.8515625 C7.74810059 34.63611816 7.59776367 35.42067383 7.44287109 36.22900391 C7 38 7 38 6 39 C3.81360547 39.07258946 1.62499611 39.08373783 -0.5625 39.0625 C-2.35880859 39.04896484 -2.35880859 39.04896484 -4.19140625 39.03515625 C-5.11824219 39.02355469 -6.04507812 39.01195312 -7 39 C-6.27293095 30.68932463 -4.61046563 22.59790814 -2.9375 14.4375 C-2.65263437 13.03327619 -2.36812634 11.62897979 -2.08398438 10.22460938 C-1.39409768 6.81540252 -0.69690643 3.40780851 0 0 Z " fill="#F0F0F0" transform="translate(392,78)"/>
<path d="M0 0 C4.29 0 8.58 0 13 0 C12.36586955 8.39620822 10.76022513 16.41216425 8.9375 24.625 C8.65248001 25.92827294 8.36797132 27.23165781 8.08398438 28.53515625 C7.39432984 31.69120243 6.69786003 34.84575805 6 38 C1.71 38 -2.58 38 -7 38 C-6.39948305 29.81795652 -5.16002423 21.96727436 -3.5 13.9375 C-3.27441406 12.81150391 -3.04882812 11.68550781 -2.81640625 10.52539062 C-1.1409337 2.2818674 -1.1409337 2.2818674 0 0 Z " fill="#F1F1F1" transform="translate(248,28)"/>
<path d="M0 0 C8.91 0 17.82 0 27 0 C26 10 26 10 25 13 C15.43 13.33 5.86 13.66 -4 14 C-4.33 14.99 -4.66 15.98 -5 17 C4.57 17 14.14 17 24 17 C24 18.32 24 19.64 24 21 C12.78 21 1.56 21 -10 21 C-9 12 -9 12 -8 8 C1.9 8 11.8 8 22 8 C22 7.01 22 6.02 22 5 C14.74 5 7.48 5 0 5 C-0.33 4.34 -0.66 3.68 -1 3 C-0.67 2.01 -0.34 1.02 0 0 Z " fill="#FF661E" transform="translate(566,129)"/>
<path d="M0 0 C9.24 0 18.48 0 28 0 C27.01 4.29 26.02 8.58 25 13 C15.43 13 5.86 13 -4 13 C-4.33 14.32 -4.66 15.64 -5 17 C4.57 17 14.14 17 24 17 C24 18.32 24 19.64 24 21 C12.78 21 1.56 21 -10 21 C-8 9 -8 9 -7 8 C-4.85441173 7.91224395 -2.70595579 7.89304781 -0.55859375 7.90234375 C0.74658203 7.90556641 2.05175781 7.90878906 3.39648438 7.91210938 C4.7851569 7.92046599 6.17382877 7.92893095 7.5625 7.9375 C8.95507656 7.94251334 10.34765481 7.94707653 11.74023438 7.95117188 C15.1601987 7.96300566 18.58007844 7.9794912 22 8 C22 7.01 22 6.02 22 5 C14.74 5 7.48 5 0 5 C0 3.35 0 1.7 0 0 Z " fill="#FF661E" transform="translate(494,129)"/>
<path d="M0 0 C4.37487331 -0.08738991 8.74952078 -0.140524 13.125 -0.1875 C14.3625 -0.21263672 15.6 -0.23777344 16.875 -0.26367188 C18.07382812 -0.27333984 19.27265625 -0.28300781 20.5078125 -0.29296875 C21.60754395 -0.3086792 22.70727539 -0.32438965 23.84033203 -0.34057617 C27.44844115 0.04833684 29.86877242 1.21161112 33 3 C32.6889315 5.06271639 32.37608484 7.12516466 32.0625 9.1875 C31.88847656 10.33605469 31.71445312 11.48460937 31.53515625 12.66796875 C31.08610475 15.46388795 30.56472553 18.22601856 30 21 C25.43755363 21.05813173 20.87520276 21.09364122 16.3125 21.125 C15.01892578 21.14175781 13.72535156 21.15851563 12.39257812 21.17578125 C11.14541016 21.18222656 9.89824219 21.18867188 8.61328125 21.1953125 C7.46641846 21.20578613 6.31955566 21.21625977 5.13793945 21.22705078 C2.00808345 21.00058489 -0.18079905 20.33456032 -3 19 C-2.88353525 17.33271516 -2.75630239 15.666182 -2.625 14 C-2.55539062 13.071875 -2.48578125 12.14375 -2.4140625 11.1875 C-1.91451708 7.34194278 -0.99349912 3.74783407 0 0 Z M3 5 C2.34 8.63 1.68 12.26 1 16 C4.00015912 17.00005304 5.97423756 17.11575585 9.10546875 17.09765625 C10.57983398 17.09282227 10.57983398 17.09282227 12.08398438 17.08789062 C13.10814453 17.07951172 14.13230469 17.07113281 15.1875 17.0625 C16.74114258 17.05573242 16.74114258 17.05573242 18.32617188 17.04882812 C20.88417266 17.0370401 23.44205733 17.02058515 26 17 C26.36103536 15.18885568 26.71365504 13.37603177 27.0625 11.5625 C27.25972656 10.55316406 27.45695313 9.54382813 27.66015625 8.50390625 C27.77230469 7.67761719 27.88445313 6.85132813 28 6 C26.96207228 4.73818905 26.96207228 4.73818905 24.68334961 4.88647461 C23.18300171 4.89432983 23.18300171 4.89432983 21.65234375 4.90234375 C20.57275391 4.90556641 19.49316406 4.90878906 18.38085938 4.91210938 C16.67639648 4.92467773 16.67639648 4.92467773 14.9375 4.9375 C13.79732422 4.94201172 12.65714844 4.94652344 11.48242188 4.95117188 C8.65492582 4.9630024 5.82745655 4.9809385 3 5 Z " fill="#FF661D" transform="translate(524,129)"/>
<path d="M0 0 C1.32 0 2.64 0 4 0 C3.67 2.64 3.34 5.28 3 8 C8.94 8 14.88 8 21 8 C21.33 5.69 21.66 3.38 22 1 C23.65 0.67 25.3 0.34 27 0 C26.67 2.64 26.34 5.28 26 8 C27.65 8 29.3 8 31 8 C31 9.65 31 11.3 31 13 C28.69 13 26.38 13 24 13 C23.67 15.64 23.34 18.28 23 21 C21.68 21 20.36 21 19 21 C19.33 18.36 19.66 15.72 20 13 C12.41 13 4.82 13 -3 13 C-1.125 1.125 -1.125 1.125 0 0 Z " fill="#FF661E" transform="translate(595,129)"/>
<path d="" fill="#EFEFEF" transform="translate(0,0)"/>
</svg>
