<svg width="65" height="67" viewBox="0 0 65 67" fill="none" xmlns="http://www.w3.org/2000/svg">
<g id="Fragment-Asteroid-3" clip-path="url(#clip0_1643_231)">
<g id="Mask group">
<mask id="mask0_1643_231" style="mask-type:alpha" maskUnits="userSpaceOnUse" x="1" y="0" width="64" height="68">
<path id="Vector 135" d="M29.2087 55.5878L43.5897 67.4797L58.5237 53.6519L54.0988 40.9303L64.6079 18.5293L54.0988 5.25457L43.5897 9.95602L21.4652 0L10.1264 6.91391L16.7637 18.5293L1 17.423V26.826L10.1264 34.293L7.36079 51.1629L15.3809 60.0127L29.2087 55.5878Z" fill="#D9D9D9"/>
</mask>
<g mask="url(#mask0_1643_231)">
<path id="Vector 139" d="M51.8865 31.8036L66.2674 43.6955L81.2014 29.8677L76.7765 17.1461L87.2857 -5.25491L76.7765 -18.5296L66.2674 -13.8282L44.1429 -23.7842L32.8041 -16.8703L39.4414 -5.25491L23.6777 -6.36114V3.04177L32.8041 10.5088L30.0385 27.3787L38.0587 36.2285L51.8865 31.8036Z" fill="#AFAFAF"/>
<path id="Vector 138" d="M10.4031 21.8476L24.784 33.7395L39.718 19.9117L35.2931 7.19009L45.8023 -15.211L35.2931 -28.4857L24.784 -23.7842L2.6595 -33.7402L-8.67931 -26.8263L-2.04196 -15.211L-17.8057 -16.3172V-6.91428L-8.67931 0.552738L-11.4449 17.4227L-3.42474 26.2725L10.4031 21.8476Z" fill="#C3C3C3"/>
<path id="Vector 137" d="M7.08471 71.6278L21.4656 83.5198L36.3997 69.6919L31.9748 56.9704L42.4839 34.5693L31.9748 21.2946L21.4656 25.9961L-0.658863 16.04L-11.9977 22.9539L-5.36032 34.5693L-21.124 33.4631V42.866L-11.9977 50.333L-14.7632 67.2029L-6.7431 76.0527L7.08471 71.6278Z" fill="#969696"/>
<path id="Vector 136" d="M49.1208 82.6903L63.5018 94.5823L78.4358 80.7544L74.0109 68.0329L84.52 45.6318L74.0109 32.3571L63.5018 37.0586L41.3773 27.1025L30.0385 34.0164L36.6758 45.6318L20.9121 44.5256V53.9285L30.0385 61.3955L27.2729 78.2654L35.293 87.1152L49.1208 82.6903Z" fill="#C3C3C3"/>
</g>
</g>
</g>
<defs>
<clipPath id="clip0_1643_231">
<rect width="65" height="67" fill="white"/>
</clipPath>
</defs>
</svg>
