<svg width="65" height="67" viewBox="0 0 65 67" fill="none" xmlns="http://www.w3.org/2000/svg">
<g id="Fragment-Asteroid-1">
<g id="Mask group">
<mask id="mask0_1643_233" style="mask-type:alpha" maskUnits="userSpaceOnUse" x="4" y="2" width="59" height="65">
<path id="Vector 135" d="M22.4159 46.0442L30.0045 66.161L41.4899 58.9496L43.2235 47.8047L53.4323 54.853L62.0768 41.1504L57.3093 25.4902L62.0768 13.0587L46.6474 2L15.702 6.51838V13.7143L25.3237 18.6389L10.5011 23.7666L4 41.1504L11.5847 50.2085L22.4159 46.0442Z" fill="#D9D9D9"/>
</mask>
<g mask="url(#mask0_1643_233)">
<path id="Vector 136" d="M32.9247 64.8498L40.5133 84.9667L51.9987 77.7553L53.7323 66.6103L63.9411 73.6587L72.5856 59.956L67.8181 44.2959L72.5856 31.8644L57.1562 20.8057L26.2108 25.324V32.52L35.8325 37.4446L21.0099 42.5723L14.5088 59.956L22.0934 69.0142L32.9247 64.8498Z" fill="#C3C3C3"/>
<path id="Vector 139" d="M44.54 22.8137L52.1286 42.9306L63.6139 35.7191L65.3475 24.5742L75.5563 31.6225L84.2008 17.9199L79.4333 2.25976L84.2008 -10.1718L68.7715 -21.2305L37.8261 -16.7121V-9.51617L47.4477 -4.59156L32.6252 0.536123L26.124 17.9199L33.7087 26.978L44.54 22.8137Z" fill="#C3C3C3"/>
<path id="Vector 137" d="M0.22649 67.9016L7.81509 88.0185L19.3004 80.807L21.0341 69.6621L31.2428 76.7104L39.8874 63.0078L35.1199 47.3477L39.8874 34.9161L24.458 23.8574L-6.48741 28.3758V35.5717L3.13427 40.4963L-11.6883 45.624L-18.1895 63.0078L-10.6048 72.0659L0.22649 67.9016Z" fill="#AFAFAF"/>
<path id="Vector 140" d="M61.2265 27.9016L68.8151 48.0185L80.3004 40.807L82.0341 29.6621L92.2428 36.7104L100.887 23.0078L96.1199 7.34765L100.887 -5.08386L85.458 -16.1426L54.5126 -11.6242V-4.42828L64.1343 0.496334L49.3117 5.62401L42.8105 23.0078L50.3952 32.0659L61.2265 27.9016Z" fill="#AFAFAF"/>
<path id="Vector 138" d="M-1.77351 25.9016L5.81509 46.0185L17.3004 38.807L19.0341 27.6621L29.2428 34.7104L37.8874 21.0078L33.1199 5.34765L37.8874 -7.08386L22.458 -18.1426L-8.48741 -13.6242V-6.42828L1.13427 -1.50367L-13.6883 3.62401L-20.1895 21.0078L-12.6048 30.0659L-1.77351 25.9016Z" fill="#969696"/>
</g>
</g>
</g>
</svg>
