<svg width="105" height="50" viewBox="0 0 105 50" fill="none" xmlns="http://www.w3.org/2000/svg">
<g id="Large-Astroid-1" clip-path="url(#clip0_1558_267)">
<g id="Mask group">
<mask id="mask0_1558_267" style="mask-type:alpha" maskUnits="userSpaceOnUse" x="0" y="0" width="105" height="54">
<path id="Vector 135" d="M1.34599 35.6758L10.4688 47.5677L26.6206 43.6959L34.3974 49.5036L54.1385 41.4834L59.0738 49.5036L68.1966 53.0988L73.431 46.4614L89.4333 53.0988L100.351 44.8021L104.538 30.9743L99.7525 23.7838V7.46702L88.7609 2.48901L76.5717 11.8919L62.2145 0H54.1385L46.6609 7.46702L30.2099 0H6.58038L0 13.8278L1.34599 35.6758Z" fill="#D9D9D9"/>
</mask>
<g mask="url(#mask0_1558_267)">
<path id="Vector 137" d="M-46.5827 50.0566L-37.4599 61.9485L-21.3081 58.0767L-13.5313 63.8844L6.20984 55.8643L11.1451 63.8844L20.2679 67.4797L25.5023 60.8423L41.5046 67.4797L52.422 59.183L56.6095 45.3552L51.8238 38.1647V21.8479L40.8322 16.8699L28.6429 26.2728L14.2858 14.3809H6.20984L-1.26786 21.8479L-17.7188 14.3809H-41.3483L-47.9287 28.2087L-46.5827 50.0566Z" fill="#AFAFAF"/>
<path id="Vector 138" d="M36.8206 27.9326L45.9434 39.8245L62.0952 35.9527L69.872 41.7604L89.6132 33.7403L94.5484 41.7604L103.671 45.3556L108.906 38.7183L124.908 45.3556L135.825 37.0589L140.013 23.2311L135.227 16.0407V-0.276146L124.236 -5.25416L112.046 4.14875L97.6891 -7.74316H89.6132L82.1355 -0.276146L65.6845 -7.74316H42.055L35.4746 6.08465L36.8206 27.9326Z" fill="#AFAFAF"/>
<path id="Vector 139" d="M-46.5827 21.8476L-37.4599 33.7395L-21.3081 29.8678L-13.5313 35.6754L6.20984 27.6553L11.1451 35.6754L20.2679 39.2707L25.5023 32.6333L41.5046 39.2707L52.422 30.974L56.6095 17.1462L51.8238 9.95571V-6.36111L40.8322 -11.3391L28.6429 -1.93621L14.2858 -13.8281H6.20984L-1.26786 -6.36111L-17.7188 -13.8281H-41.3483L-47.9287 -0.000313759L-46.5827 21.8476Z" fill="#C3C3C3"/>
<path id="Vector 140" d="M66.2581 7.46677L75.3809 19.3587L91.5327 15.4869L99.3095 21.2946L119.051 13.2744L123.986 21.2946L133.109 24.8898L138.343 18.2525L154.345 24.8898L165.263 16.5931L169.45 2.76531L164.665 -4.42515V-20.742L153.673 -25.72L141.484 -16.3171L127.127 -28.209H119.051L111.573 -20.742L95.122 -28.209H71.4925L64.9121 -14.3812L66.2581 7.46677Z" fill="#C3C3C3"/>
<path id="Vector 136" d="M35.3118 62.2256L44.4346 74.1175L60.5864 70.2457L68.3632 76.0534L88.1044 68.0332L93.0397 76.0534L102.162 79.6486L107.397 73.0112L123.399 79.6486L134.317 71.3519L138.504 57.5241L133.718 50.3336V34.0168L122.727 29.0388L110.537 38.4417L96.1803 26.5498H88.1044L80.6267 34.0168L64.1757 26.5498H40.5462L33.9658 40.3776L35.3118 62.2256Z" fill="#969696"/>
</g>
</g>
</g>
<defs>
<clipPath id="clip0_1558_267">
<rect width="105" height="50" fill="white"/>
</clipPath>
</defs>
</svg>
