<svg width="94" height="63" viewBox="0 0 94 63" fill="none" xmlns="http://www.w3.org/2000/svg">
<g id="Large-Asteroid-2" clip-path="url(#clip0_1643_222)">
<g id="Mask group">
<mask id="mask0_1643_222" style="mask-type:alpha" maskUnits="userSpaceOnUse" x="0" y="1" width="94" height="63">
<path id="Vector 135" d="M48.3973 63.2252L84.3496 56.3112L90.1573 46.6318L82.9669 41.6538L93.1994 27.5494L84.3496 9.8498L72.4577 15.934L55.3112 1L35.6758 7.08424L15.4871 5.14834L0 18.423L3.04212 34.7399L13.2747 41.6538L16.3168 54.6519L31.2509 51.8863L48.3973 63.2252Z" fill="#D9D9D9"/>
</mask>
<g mask="url(#mask0_1643_222)">
<path id="Vector 136" d="M75.2235 94.7525L111.176 87.8386L116.983 78.1591L109.793 73.1811L120.026 59.0767L111.176 41.3771L99.2839 47.4614L82.1374 32.5273L62.5019 38.6116L42.3133 36.6757L26.8262 49.9504L29.8683 66.2672L40.1009 73.1811L43.143 86.1793L58.077 83.4137L75.2235 94.7525Z" fill="#C3C3C3"/>
<path id="Vector 138" d="M84.6259 54.3755L120.578 47.4616L126.386 37.7822L119.195 32.8042L129.428 18.6998L120.578 1.00019L108.686 7.08443L91.5398 -7.84961L71.9043 -1.76537L51.7157 -3.70127L36.2285 9.57343L39.2706 25.8903L49.5032 32.8042L52.5453 45.8023L67.4794 43.0367L84.6259 54.3755Z" fill="#AFAFAF"/>
<path id="Vector 139" d="M26.5497 36.6753L62.502 29.7614L68.3097 20.082L61.1192 15.104L71.3518 0.999592L62.502 -16.7L50.6101 -10.6158L33.4636 -25.5498L13.8281 -19.4656L-6.36051 -21.4015L-21.8477 -8.12676L-18.8055 8.19006L-8.57296 15.104L-5.53084 28.1021L9.4032 25.3365L26.5497 36.6753Z" fill="#C3C3C3"/>
<path id="Vector 137" d="M11.0624 76.4996L47.0147 69.5857L52.8224 59.9062L45.6319 54.9282L55.8645 40.8238L47.0147 23.1242L35.1228 29.2085L17.9763 14.2744L-1.65921 20.3587L-21.8478 18.4228L-37.335 31.6975L-34.2928 48.0143L-24.0603 54.9282L-21.0181 67.9263L-6.08411 65.1608L11.0624 76.4996Z" fill="#969696"/>
</g>
</g>
</g>
<defs>
<clipPath id="clip0_1643_222">
<rect width="94" height="63" fill="white"/>
</clipPath>
</defs>
</svg>
